  0
SECTION
  2
HEADER
  9
$ACADVER
  1
AC1014
  9
$HANDSEED
  5
FFFF
  9
$MEASUREMENT
 70
     1
  0
ENDSEC
  0
SECTION
  2
TABLES
  0
TABLE
  2
VPORT
  5
8
330
0
100
AcDbSymbolTable
 70
     4
  0
VPORT
  5
2E
330
8
100
AcDbSymbolTableRecord
100
AcDbViewportTableRecord
  2
*ACTIVE
 70
     0
 10
0.0
 20
0.0
 11
1.0
 21
1.0
 12
210.0
 22
148.5
 13
0.0
 23
0.0
 14
10.0
 24
10.0
 15
10.0
 25
10.0
 16
0.0
 26
0.0
 36
1.0
 17
0.0
 27
0.0
 37
0.0
 40
341.0
 41
1.24
 42
50.0
 43
0.0
 44
0.0
 50
0.0
 51
0.0
 71
     0
 72
   100
 73
     1
 74
     3
 75
     0
 76
     0
 77
     0
 78
     0
  0
ENDTAB
  0
TABLE
  2
LTYPE
  5
5
330
0
100
AcDbSymbolTable
 70
     1
  0
LTYPE
  5
14
330
5
100
AcDbSymbolTableRecord
100
AcDbLinetypeTableRecord
  2
BYBLOCK
 70
     0
  3

 72
    65
 73
     0
 40
0.0
  0
LTYPE
  5
15
330
5
100
AcDbSymbolTableRecord
100
AcDbLinetypeTableRecord
  2
BYLAYER
 70
     0
  3

 72
    65
 73
     0
 40
0.0
  0
LTYPE
  5
16
330
5
100
AcDbSymbolTableRecord
100
AcDbLinetypeTableRecord
  2
CONTINUOUS
 70
     0
  3
Solid line
 72
    65
 73
     0
 40
0.0
  0
ENDTAB
  0
TABLE
  2
LAYER
  5
2
100
AcDbSymbolTable
 70
2
  0
LAYER
  5
50
100
AcDbSymbolTableRecord
100
AcDbLayerTableRecord
  2
0
 70
0
  6
CONTINUOUS
  0
LAYER
  5
51
100
AcDbSymbolTableRecord
100
AcDbLayerTableRecord
  2
Layer_1
 70
0
  6
CONTINUOUS
  0
ENDTAB
  0
TABLE
  2
STYLE
  5
3
330
0
100
AcDbSymbolTable
 70
     1
  0
STYLE
  5
11
330
3
100
AcDbSymbolTableRecord
100
AcDbTextStyleTableRecord
  2
STANDARD
 70
     0
 40
0.0
 41
1.0
 50
0.0
 71
     0
 42
2.5
  3
txt
  4

  0
ENDTAB
  0
TABLE
  2
VIEW
  5
6
330
0
100
AcDbSymbolTable
 70
     0
  0
ENDTAB
  0
TABLE
  2
UCS
  5
7
330
0
100
AcDbSymbolTable
 70
     0
  0
ENDTAB
  0
TABLE
  2
APPID
  5
9
330
0
100
AcDbSymbolTable
 70
     2
  0
APPID
  5
12
330
9
100
AcDbSymbolTableRecord
100
AcDbRegAppTableRecord
  2
ACAD
 70
     0
  0
ENDTAB
  0
TABLE
  2
DIMSTYLE
  5
A
330
0
100
AcDbSymbolTable
 70
     1
  0
DIMSTYLE
105
27
330
A
100
AcDbSymbolTableRecord
100
AcDbDimStyleTableRecord
  2
ISO-25
 70
     0
  3

  4

  5

  6

  7

 40
1.0
 41
2.5
 42
0.625
 43
3.75
 44
1.25
 45
0.0
 46
0.0
 47
0.0
 48
0.0
140
2.5
141
2.5
142
0.0
143
0.03937007874016
144
1.0
145
0.0
146
1.0
147
0.625
 71
     0
 72
     0
 73
     0
 74
     0
 75
     0
 76
     0
 77
     1
 78
     8
170
     0
171
     3
172
     1
173
     0
174
     0
175
     0
176
     0
177
     0
178
     0
270
     2
271
     2
272
     2
273
     2
274
     3
340
11
275
     0
280
     0
281
     0
282
     0
283
     0
284
     8
285
     0
286
     0
287
     3
288
     0
  0
ENDTAB
  0
TABLE
  2
BLOCK_RECORD
  5
1
330
0
100
AcDbSymbolTable
 70
     1
  0
BLOCK_RECORD
  5
1F
330
1
100
AcDbSymbolTableRecord
100
AcDbBlockTableRecord
  2
*MODEL_SPACE
  0
BLOCK_RECORD
  5
1B
330
1
100
AcDbSymbolTableRecord
100
AcDbBlockTableRecord
  2
*PAPER_SPACE
  0
ENDTAB
  0
ENDSEC
  0
SECTION
  2
BLOCKS
  0
BLOCK
  5
20
330
1F
100
AcDbEntity
  8
0
100
AcDbBlockBegin
  2
*MODEL_SPACE
 70
     0
 10
0.0
 20
0.0
 30
0.0
  3
*MODEL_SPACE
  1

  0
ENDBLK
  5
21
330
1F
100
AcDbEntity
  8
0
100
AcDbBlockEnd
  0
BLOCK
  5
1C
330
1B
100
AcDbEntity
 67
     1
  8
0
100
AcDbBlockBegin
  2
*PAPER_SPACE
  1

  0
ENDBLK
  5
1D
330
1B
100
AcDbEntity
 67
     1
  8
0
100
AcDbBlockEnd
  0
ENDSEC
  0
SECTION
  2
ENTITIES
  0
LWPOLYLINE
  5
100
100
AcDbEntity
  8
Layer_1
 62
7
100
AcDbPolyline
 90
4
 70
1
 10
284.606944
 20
236.914038
 30
0.0
 10
284.606944
 20
71.595564
 30
0.0
 10
255.351464
 20
71.595564
 30
0.0
 10
255.351464
 20
236.914038
 30
0.0
  0
LWPOLYLINE
  5
101
100
AcDbEntity
  8
Layer_1
 62
7
100
AcDbPolyline
 90
4
 70
1
 10
284.606944
 20
12.100176
 30
0.0
 10
284.606944
 20
-153.218298
 30
0.0
 10
255.351464
 20
-153.218298
 30
0.0
 10
255.351464
 20
12.100176
 30
0.0
  0
LWPOLYLINE
  5
102
100
AcDbEntity
  8
Layer_1
 62
7
100
AcDbPolyline
 90
4
 70
1
 10
74.919519
 20
64.027329
 30
0.0
 10
240.232600
 20
64.027329
 30
0.0
 10
240.232600
 20
19.659129
 30
0.0
 10
74.919519
 20
19.659129
 30
0.0
  0
LWPOLYLINE
  5
103
100
AcDbEntity
  8
Layer_1
 62
7
100
AcDbPolyline
 90
4
 70
1
 10
299.725833
 20
64.027313
 30
0.0
 10
465.038914
 20
64.027313
 30
0.0
 10
465.038914
 20
19.659114
 30
0.0
 10
299.725833
 20
19.659114
 30
0.0
  0
LWPOLYLINE
  5
104
100
AcDbEntity
  8
Layer_1
 62
7
100
AcDbPolyline
 90
4
 70
1
 10
247.790748
 20
64.035012
 30
0.0
 10
292.166653
 20
64.035012
 30
0.0
 10
292.166653
 20
19.659107
 30
0.0
 10
247.790748
 20
19.659107
 30
0.0
  0
LWPOLYLINE
  5
105
100
AcDbEntity
  8
Layer_1
 62
7
100
AcDbPolyline
 90
8
 70
1
 10
90.101234
 20
206.961764
 30
0.0
 10
90.101234
 20
188.961820
 30
0.0
 10
137.100950
 20
188.961820
 30
0.0
 10
137.100950
 20
195.461680
 30
0.0
 10
140.101280
 20
195.461680
 30
0.0
 10
140.101280
 20
200.461904
 30
0.0
 10
137.100950
 20
200.461904
 30
0.0
 10
137.100950
 20
206.961764
 30
0.0
  0
LWPOLYLINE
  5
106
100
AcDbEntity
  8
Layer_1
 62
7
100
AcDbPolyline
 90
8
 70
1
 10
142.339660
 20
189.961590
 30
0.0
 10
142.339660
 20
186.961770
 30
0.0
 10
139.100580
 20
186.961770
 30
0.0
 10
139.100580
 20
140.222500
 30
0.0
 10
150.839400
 20
140.222500
 30
0.0
 10
150.839400
 20
186.961770
 30
0.0
 10
147.339350
 20
186.961770
 30
0.0
 10
147.339350
 20
189.961590
 30
0.0
  0
LWPOLYLINE
  5
107
100
AcDbEntity
  8
Layer_1
 62
7
100
AcDbPolyline
 90
8
 70
1
 10
139.100420
 20
255.700594
 30
0.0
 10
139.100420
 20
208.961324
 30
0.0
 10
142.600470
 20
208.961324
 30
0.0
 10
142.600470
 20
205.961514
 30
0.0
 10
147.600160
 20
205.961514
 30
0.0
 10
147.600160
 20
208.961324
 30
0.0
 10
150.839240
 20
208.961324
 30
0.0
 10
150.839240
 20
255.700594
 30
0.0
  0
LWPOLYLINE
  5
108
100
AcDbEntity
  8
Layer_1
 62
7
100
AcDbPolyline
 90
8
 70
1
 10
152.839050
 20
206.961754
 30
0.0
 10
152.839050
 20
200.461894
 30
0.0
 10
149.839230
 20
200.461894
 30
0.0
 10
149.839230
 20
195.461680
 30
0.0
 10
152.839050
 20
195.461680
 30
0.0
 10
152.839050
 20
188.961820
 30
0.0
 10
199.839290
 20
188.961820
 30
0.0
 10
199.839290
 20
206.961754
 30
0.0
  0
LWPOLYLINE
  5
109
100
AcDbEntity
  8
Layer_1
 62
7
100
AcDbPolyline
 90
4
 70
1
 10
101.032630
 20
49.679510
 30
0.0
 10
110.769820
 20
49.679510
 30
0.0
 10
110.769820
 20
39.942320
 30
0.0
 10
101.032630
 20
39.942320
 30
0.0
  0
LWPOLYLINE
  5
10a
100
AcDbEntity
  8
Layer_1
 62
7
100
AcDbPolyline
 90
32
 70
1
 10
76.532990
 20
64.667580
 30
0.0
 10
76.532990
 20
57.958950
 30
0.0
 10
79.195359
 20
57.958950
 30
0.0
 10
79.195359
 20
48.796200
 30
0.0
 10
76.532990
 20
48.796200
 30
0.0
 10
76.532990
 20
41.796110
 30
0.0
 10
79.195359
 20
41.796110
 30
0.0
 10
79.195359
 20
32.633880
 30
0.0
 10
76.532990
 20
32.633880
 30
0.0
 10
76.532990
 20
24.930990
 30
0.0
 10
135.269460
 20
24.930990
 30
0.0
 10
135.269460
 20
32.633880
 30
0.0
 10
132.607090
 20
32.633880
 30
0.0
 10
132.607090
 20
41.796630
 30
0.0
 10
135.269460
 20
41.796630
 30
0.0
 10
135.269460
 20
48.505260
 30
0.0
 10
132.607090
 20
48.505260
 30
0.0
 10
132.607090
 20
57.668010
 30
0.0
 10
135.269460
 20
57.668010
 30
0.0
 10
135.269460
 20
64.667580
 30
0.0
 10
126.598150
 20
64.667580
 30
0.0
 10
126.598150
 20
61.994360
 30
0.0
 10
117.578550
 20
61.994360
 30
0.0
 10
117.578550
 20
64.667580
 30
0.0
 10
109.900460
 20
64.667580
 30
0.0
 10
109.900460
 20
61.994360
 30
0.0
 10
100.880860
 20
61.994360
 30
0.0
 10
100.880860
 20
64.667580
 30
0.0
 10
93.211040
 20
64.667580
 30
0.0
 10
93.211040
 20
61.994360
 30
0.0
 10
84.191436
 20
61.994360
 30
0.0
 10
84.191436
 20
64.667580
 30
0.0
  0
LWPOLYLINE
  5
10b
100
AcDbEntity
  8
Layer_1
 62
7
100
AcDbPolyline
 90
25
 70
1
 10
38.236424
 20
64.854483
 30
0.0
 10
38.236424
 20
62.240172
 30
0.0
 10
23.621814
 20
62.240172
 30
0.0
 10
23.621814
 20
59.854787
 30
0.0
 10
20.939807
 20
59.854787
 30
0.0
 10
20.939807
 20
50.172693
 30
0.0
 10
23.621814
 20
50.172693
 30
0.0
 10
23.621814
 20
39.799683
 30
0.0
 10
20.939807
 20
39.799683
 30
0.0
 10
20.939807
 20
30.117573
 30
0.0
 10
23.621814
 20
30.117573
 30
0.0
 10
23.621814
 20
25.117372
 30
0.0
 10
67.672870
 20
25.117372
 30
0.0
 10
67.672870
 20
33.020251
 30
0.0
 10
70.358497
 20
33.020251
 30
0.0
 10
70.358497
 20
42.225375
 30
0.0
 10
67.649616
 20
42.225375
 30
0.0
 10
67.649616
 20
48.948995
 30
0.0
 10
70.358497
 20
48.948995
 30
0.0
 10
70.358497
 20
58.131378
 30
0.0
 10
67.649616
 20
58.131378
 30
0.0
 10
67.649616
 20
62.240172
 30
0.0
 10
53.035522
 20
62.240172
 30
0.0
 10
53.035522
 20
64.854483
 30
0.0
 10
38.236424
 20
64.854483
 30
0.0
  0
LWPOLYLINE
  5
10c
100
AcDbEntity
  8
Layer_1
 62
7
100
AcDbPolyline
 90
25
 70
1
 10
159.858975
 20
65.460646
 30
0.0
 10
159.858975
 20
62.846338
 30
0.0
 10
145.244363
 20
62.846338
 30
0.0
 10
145.244363
 20
58.477612
 30
0.0
 10
142.541684
 20
58.477612
 30
0.0
 10
142.541684
 20
49.298327
 30
0.0
 10
145.250565
 20
49.298327
 30
0.0
 10
145.250565
 20
42.589693
 30
0.0
 10
142.541684
 20
42.589693
 30
0.0
 10
142.541684
 20
33.405757
 30
0.0
 10
145.230928
 20
33.405757
 30
0.0
 10
145.230928
 20
25.723532
 30
0.0
 10
189.278885
 20
25.723532
 30
0.0
 10
189.278885
 20
30.723760
 30
0.0
 10
191.960889
 20
30.723760
 30
0.0
 10
191.960889
 20
40.405846
 30
0.0
 10
189.278885
 20
40.405846
 30
0.0
 10
189.278885
 20
50.778340
 30
0.0
 10
191.960889
 20
50.778340
 30
0.0
 10
191.960889
 20
60.460953
 30
0.0
 10
189.278885
 20
60.460953
 30
0.0
 10
189.278885
 20
62.846338
 30
0.0
 10
174.664788
 20
62.846338
 30
0.0
 10
174.664788
 20
65.460646
 30
0.0
 10
159.858975
 20
65.460646
 30
0.0
  0
LWPOLYLINE
  5
10d
100
AcDbEntity
  8
Layer_1
 62
7
100
AcDbPolyline
 90
4
 70
1
 10
367.666526
 20
-649.094551
 30
0.0
 10
378.076803
 20
-649.094551
 30
0.0
 10
378.076803
 20
-663.284356
 30
0.0
 10
367.666526
 20
-663.284356
 30
0.0
  0
LWPOLYLINE
  5
10e
100
AcDbEntity
  8
Layer_1
 62
7
100
AcDbPolyline
 90
4
 70
1
 10
422.447017
 20
-649.056718
 30
0.0
 10
432.857295
 20
-649.056718
 30
0.0
 10
432.857295
 20
-663.246523
 30
0.0
 10
422.447017
 20
-663.246523
 30
0.0
  0
LWPOLYLINE
  5
10f
100
AcDbEntity
  8
Layer_1
 62
7
100
AcDbPolyline
 90
4
 70
1
 10
393.174576
 20
-678.382110
 30
0.0
 10
407.364381
 20
-678.382110
 30
0.0
 10
407.364381
 20
-688.792387
 30
0.0
 10
393.174576
 20
-688.792387
 30
0.0
  0
LWPOLYLINE
  5
110
100
AcDbEntity
  8
Layer_1
 62
7
100
AcDbPolyline
 90
4
 70
1
 10
393.136819
 20
-623.529789
 30
0.0
 10
407.326625
 20
-623.529789
 30
0.0
 10
407.326625
 20
-633.940066
 30
0.0
 10
393.136819
 20
-633.940066
 30
0.0
  0
LWPOLYLINE
  5
111
100
AcDbEntity
  8
Layer_1
 62
7
100
AcDbPolyline
 90
4
 70
1
 10
593.884724
 20
-780.288189
 30
0.0
 10
593.884724
 20
-790.169059
 30
0.0
 10
649.120671
 20
-790.169059
 30
0.0
 10
649.120671
 20
-780.288189
 30
0.0
  0
LWPOLYLINE
  5
112
100
AcDbEntity
  8
Layer_1
 62
7
100
AcDbPolyline
 90
36
 70
1
 10
79.330520
 20
138.893350
 30
0.0
 10
79.330520
 20
134.391810
 30
0.0
 10
76.819046
 20
134.391810
 30
0.0
 10
76.819046
 20
124.708690
 30
0.0
 10
79.330520
 20
124.708690
 30
0.0
 10
79.330520
 20
114.017350
 30
0.0
 10
76.819046
 20
114.017350
 30
0.0
 10
76.819046
 20
104.333190
 30
0.0
 10
79.330520
 20
104.333190
 30
0.0
 10
79.330520
 20
94.332250
 30
0.0
 10
76.819046
 20
94.332250
 30
0.0
 10
76.819046
 20
84.648600
 30
0.0
 10
79.330520
 20
84.648600
 30
0.0
 10
79.330520
 20
80.148100
 30
0.0
 10
93.945131
 20
80.148100
 30
0.0
 10
93.945131
 20
82.762410
 30
0.0
 10
108.744230
 20
82.762410
 30
0.0
 10
108.744230
 20
80.148100
 30
0.0
 10
123.386750
 20
80.148100
 30
0.0
 10
123.386750
 20
87.827730
 30
0.0
 10
125.896670
 20
87.827730
 30
0.0
 10
125.896670
 20
96.828730
 30
0.0
 10
123.386750
 20
96.828730
 30
0.0
 10
123.386750
 20
104.519220
 30
0.0
 10
125.896670
 20
104.519220
 30
0.0
 10
125.896670
 20
113.520740
 30
0.0
 10
123.386750
 20
113.520740
 30
0.0
 10
123.386750
 20
121.210710
 30
0.0
 10
125.896670
 20
121.210710
 30
0.0
 10
125.896670
 20
130.220490
 30
0.0
 10
123.395010
 20
130.220490
 30
0.0
 10
123.395010
 20
138.893350
 30
0.0
 10
108.750430
 20
138.893350
 30
0.0
 10
108.750430
 20
136.279040
 30
0.0
 10
93.944615
 20
136.279040
 30
0.0
 10
93.944615
 20
138.893350
 30
0.0
  0
ENDSEC
  0
SECTION
  2
OBJECTS
  0
DICTIONARY
  5
C
330
0
100
AcDbDictionary
  3
ACAD_GROUP
350
D
  3
ACAD_MLINESTYLE
350
17
  0
DICTIONARY
  5
D
330
C
100
AcDbDictionary
  0
DICTIONARY
  5
1A
330
C
100
AcDbDictionary
  0
DICTIONARY
  5
17
330
C
100
AcDbDictionary
  3
STANDARD
350
18
  0
DICTIONARY
  5
19
330
C
100
AcDbDictionary
  0
ENDSEC
  0
EOF
