<?xml version="1.0" encoding="UTF-8" standalone="no"?>
<!-- Created with Inkscape (http://www.inkscape.org/) -->

<svg
   version="1.1"
   id="svg2"
   xml:space="preserve"
   width="793.76001"
   height="1122.5601"
   viewBox="0 0 793.76001 1122.5601"
   sodipodi:docname="config bottle and holder rev 5.svg"
   inkscape:version="1.1.1 (3bf5ae0d25, 2021-09-20)"
   xmlns:inkscape="http://www.inkscape.org/namespaces/inkscape"
   xmlns:sodipodi="http://sodipodi.sourceforge.net/DTD/sodipodi-0.dtd"
   xmlns="http://www.w3.org/2000/svg"
   xmlns:svg="http://www.w3.org/2000/svg"><defs
     id="defs6" /><sodipodi:namedview
     id="namedview4"
     pagecolor="#ffffff"
     bordercolor="#666666"
     borderopacity="1.0"
     inkscape:pageshadow="2"
     inkscape:pageopacity="0.0"
     inkscape:pagecheckerboard="0"
     showgrid="false"
     inkscape:zoom="2"
     inkscape:cx="598.25"
     inkscape:cy="303.25"
     inkscape:window-width="1366"
     inkscape:window-height="715"
     inkscape:window-x="-8"
     inkscape:window-y="-8"
     inkscape:window-maximized="1"
     inkscape:current-layer="g8" /><g
     id="g8"
     inkscape:groupmode="layer"
     inkscape:label="config bottle and holder rev 5"
     transform="translate(0,6.9397335e-5)"><g
       id="g10"
       style="stroke-width:0.189731;stroke-miterlimit:4;stroke-dasharray:none"
       transform="matrix(1.0551314,0,0,1.0531171,-29.950106,-7.8393679)"><path
         d="M 585.59998,201.60001 H 630.56 V 246.56 h -44.96002 z"
         style="fill:none;stroke:#000000;stroke-width:0.189731;stroke-linecap:butt;stroke-linejoin:miter;stroke-miterlimit:4;stroke-dasharray:none;stroke-opacity:1"
         id="path12" /></g><g
       id="g14"
       transform="translate(497.12,118.88)"
       style="stroke-width:0.2;stroke-miterlimit:4;stroke-dasharray:none"><path
         d="M 0,0 V 25.280001 H 10.08 V 60 H 0 V 86.400002 H 10.08 V 120.96 H 0 v 29.12 H 222.08 V 120.96 H 212 V 86.400002 h 10.08 V 60.959999 H 212 V 26.4 h 10.08 V 0 h -32.8 V 10.08 H 155.2 V 0 H 126.24 V 10.08 H 92.160004 V 0 H 63.040001 V 10.08 H 28.959999 V 0 Z"
         style="fill:none;stroke:#000000;stroke-width:0.2;stroke-linecap:butt;stroke-linejoin:miter;stroke-miterlimit:4;stroke-dasharray:none;stroke-opacity:1"
         id="path16" /></g><g
       id="g18"
       transform="matrix(0,1.1307826,-1.147198,0,929.56678,-485.66592)"
       style="stroke-width:0.175598;stroke-miterlimit:4;stroke-dasharray:none"><path
         d="m 653.76001,235.2 v 11.36 H 638.56 V 235.2 Z"
         style="fill:none;stroke:#000000;stroke-width:0.175598;stroke-linecap:butt;stroke-linejoin:miter;stroke-miterlimit:4;stroke-dasharray:none;stroke-opacity:1"
         id="path20" /></g><g
       id="g26"
       transform="matrix(0,1.1052122,-1.1309185,0,842.75712,-385.34199)"
       style="stroke-width:0.178893;stroke-miterlimit:4;stroke-dasharray:none"><path
         d="m 562.56,235.67999 h 15.20001 V 247.2 H 562.56 Z"
         style="fill:none;stroke:#000000;stroke-width:0.178893;stroke-linecap:butt;stroke-linejoin:miter;stroke-miterlimit:4;stroke-dasharray:none;stroke-opacity:1"
         id="path28" /></g><g
       id="g34"
       transform="matrix(1.0133849,0,0,1,354.98563,237.67767)"
       style="stroke-width:0.198675;stroke-miterlimit:4;stroke-dasharray:none"><path
         d="m 0,0 v 1.92 0 180 h 14.72 v -9.44 H 7.04 v -1.6 0 -10.72 H 14.4 V 12.64 H 7.04 V 1.92 1.92 0 Z"
         style="fill:none;stroke:#000000;stroke-width:0.198675;stroke-linecap:butt;stroke-linejoin:miter;stroke-miterlimit:4;stroke-dasharray:none;stroke-opacity:1"
         id="path36" /></g><g
       id="g42"
       transform="matrix(1.0133849,0,0,1,469.42265,240.07766)"
       style="stroke-width:0.198675;stroke-miterlimit:4;stroke-dasharray:none"><path
         d="m 0,0 v 1.92 0 179.83999 h -14.72 v -9.43998 h 7.68 v -1.44001 0 -10.72 H -14.4 V 12.64 h 7.36 V 1.92 1.92 0 Z"
         style="fill:none;stroke:#000000;stroke-width:0.198675;stroke-linecap:butt;stroke-linejoin:miter;stroke-miterlimit:4;stroke-dasharray:none;stroke-opacity:1"
         id="path44" /></g><g
       id="g46"
       transform="matrix(1.0025612,0,0,1,417.74374,239.59767)"
       style="stroke-width:0.199744;stroke-miterlimit:4;stroke-dasharray:none"><path
         d="m 0,0 v 1.92 h -0.16 v 179.83999 h -14.72 v -9.43998 h 7.68 v -1.60001 0 V 160 h -7.36 V 12.48 h 7.36 v -10.56 0 L -7.2,0 Z"
         style="fill:none;stroke:#000000;stroke-width:0.199744;stroke-linecap:butt;stroke-linejoin:miter;stroke-miterlimit:4;stroke-dasharray:none;stroke-opacity:1"
         id="path48" /></g><g
       id="g50"
       transform="matrix(1.0025612,0,0,1,287.46563,220.23767)"
       style="stroke-width:0.199744;stroke-miterlimit:4;stroke-dasharray:none"><path
         d="m 0,0 v 1.92 0 180 h 14.88 v -9.44 H 7.04 v -1.6 0 -10.72 h 7.52 V 12.64 H 7.04 V 1.92 H 7.2 V 0 Z"
         style="fill:none;stroke:#000000;stroke-width:0.199744;stroke-linecap:butt;stroke-linejoin:miter;stroke-miterlimit:4;stroke-dasharray:none;stroke-opacity:1"
         id="path52" /></g><rect
       style="fill:none;stroke:#000000;stroke-width:0.2"
       id="rect2928"
       width="7.5590553"
       height="11.338583"
       x="160"
       y="27.499931" /><path
       id="rect4271"
       style="fill:none;stroke:#000000;stroke-width:0.2"
       d="m 570.27785,283.95147 v 14.91797 h -11.13868 v 51.98046 h 11.07813 v 14.91797 h -11.07813 v 12.67188 h 94.48829 v -12.66992 h -10.97071 v -14.91797 h 10.97071 v -51.98242 h -11.13868 v -14.91797 z m 12.29492,34.01758 h 47.80078 v 47.80078 h -47.80078 z" /><g
       id="g5364"
       transform="matrix(0,1.1307826,-1.147198,0,929.3967,-552.94529)"
       style="stroke-width:0.175598;stroke-miterlimit:4;stroke-dasharray:none"><path
         d="m 653.76001,235.2 v 11.36 H 638.56 V 235.2 Z"
         style="fill:none;stroke:#000000;stroke-width:0.175598;stroke-linecap:butt;stroke-linejoin:miter;stroke-miterlimit:4;stroke-dasharray:none;stroke-opacity:1"
         id="path5362" /></g><g
       id="g5448"
       transform="matrix(0,1.1307826,-1.147198,0,846.043,-552.94529)"
       style="stroke-width:0.175598;stroke-miterlimit:4;stroke-dasharray:none"><path
         d="m 653.76001,235.2 v 11.36 H 638.56 V 235.2 Z"
         style="fill:none;stroke:#000000;stroke-width:0.175598;stroke-linecap:butt;stroke-linejoin:miter;stroke-miterlimit:4;stroke-dasharray:none;stroke-opacity:1"
         id="path5446" /></g><path
       id="path5582"
       style="fill:none;stroke:#000000;stroke-width:0.2"
       d="m 677.77785,282.45147 v 14.91797 h -11.13868 v 51.98046 h 11.07813 v 14.91797 h -11.07813 v 12.67188 h 94.48829 v -12.66992 h -10.97071 v -14.91797 h 10.97071 v -51.98242 h -11.13868 v -14.91797 z m 12.29492,34.01758 h 47.80078 v 47.80078 h -47.80078 z" /></g></svg>
