<?xml version="1.0" encoding="UTF-8" standalone="no"?>
<!-- Created with Inkscape (http://www.inkscape.org/) -->

<svg
   version="1.1"
   id="svg2"
   xml:space="preserve"
   width="793.76001"
   height="1122.5601"
   viewBox="0 0 793.76001 1122.5601"
   sodipodi:docname="config bottle and holder rev 8.svg"
   inkscape:version="1.1.1 (3bf5ae0d25, 2021-09-20)"
   xmlns:inkscape="http://www.inkscape.org/namespaces/inkscape"
   xmlns:sodipodi="http://sodipodi.sourceforge.net/DTD/sodipodi-0.dtd"
   xmlns="http://www.w3.org/2000/svg"
   xmlns:svg="http://www.w3.org/2000/svg"><defs
     id="defs6" /><sodipodi:namedview
     id="namedview4"
     pagecolor="#ffffff"
     bordercolor="#666666"
     borderopacity="1.0"
     inkscape:pageshadow="2"
     inkscape:pageopacity="0.0"
     inkscape:pagecheckerboard="0"
     showgrid="false"
     inkscape:zoom="1.4142136"
     inkscape:cx="628.97147"
     inkscape:cy="175.71603"
     inkscape:window-width="1366"
     inkscape:window-height="715"
     inkscape:window-x="-8"
     inkscape:window-y="-8"
     inkscape:window-maximized="1"
     inkscape:current-layer="g8" /><g
     id="g8"
     inkscape:groupmode="layer"
     inkscape:label="config bottle and holder rev 5"
     transform="translate(0,6.9397335e-5)"><path
       style="fill:none;stroke:#000000;stroke-width:0.377953"
       d="m 251.8561,-53.801463 a 5.480315,5.4803146 0 0 1 -5.48032,5.48032 5.480315,5.4803146 0 0 1 -5.48031,-5.48032 5.480315,5.4803146 0 0 1 5.48031,-5.48031 5.480315,5.4803146 0 0 1 5.48032,5.48031 z"
       id="path4969"
       inkscape:connector-curvature="0" /><path
       style="fill:none;stroke:#000000;stroke-width:0.377953"
       d="m 176.26551,-53.801463 a 5.480315,5.4803146 0 0 1 -5.48032,5.48032 5.480315,5.4803146 0 0 1 -5.48031,-5.48032 5.480315,5.4803146 0 0 1 5.48031,-5.48031 5.480315,5.4803146 0 0 1 5.48032,5.48031 z"
       id="ellipse4237"
       inkscape:connector-curvature="0" /><rect
       style="fill:none;stroke:#000000;stroke-width:0.2"
       id="rect498"
       width="113.18583"
       height="188.77637"
       x="151.89685"
       y="-153.76067" /><path
       id="rect868"
       style="fill:none;stroke:#000000;stroke-width:0.199999"
       d="M 312.38477 -154.22461 L 312.38477 30.773438 L 325.61133 30.773438 L 325.61133 18.5 L 442.57812 18.5 L 442.57812 30.773438 L 455.80664 30.773438 L 455.80664 -154.22461 L 442.57812 -154.22461 L 442.57812 -141.95117 L 325.61133 -141.95117 L 325.61133 -154.22461 L 312.38477 -154.22461 z "
       transform="translate(0,-6.9397335e-5)" /><path
       id="path1079"
       style="fill:none;stroke:#000000;stroke-width:0.199999"
       d="M 494.11121,-152.10336 V 32.894689 h 13.22656 V 20.621251 h 116.96679 v 12.273438 h 13.22852 V -152.10336 h -13.22852 v 12.27344 H 507.33777 v -12.27344 z" /><path
       id="rect1103"
       style="fill:none;stroke:#000000;stroke-width:0.2"
       d="M 691.06641 -145.0332 L 691.06641 -133.69336 L 677.83789 -133.69336 L 677.83789 -35.625 L 691.06641 -35.625 L 691.06641 -24.287109 L 808.03125 -24.287109 L 808.03125 -35.625 L 821.25977 -35.625 L 821.25977 -133.69336 L 808.03125 -133.69336 L 808.03125 -145.0332 L 691.06641 -145.0332 z "
       transform="translate(0,-6.9397335e-5)" /><g
       id="g1429"
       style="stroke-width:0.189731;stroke-miterlimit:4;stroke-dasharray:none"
       transform="matrix(1.0551314,0,0,1.0531171,108.32768,-300.44921)"><path
         d="M 585.59998,201.60001 H 630.56 V 246.56 h -44.96002 z"
         style="fill:none;stroke:#000000;stroke-width:0.189731;stroke-linecap:butt;stroke-linejoin:miter;stroke-miterlimit:4;stroke-dasharray:none;stroke-opacity:1"
         id="path1427" /></g><g
       id="g1433"
       transform="matrix(0,1.1307826,-1.147198,0,1067.8444,-763.53679)"
       style="stroke-width:0.175598;stroke-miterlimit:4;stroke-dasharray:none"><path
         d="m 653.76001,235.2 v 11.36 H 638.56 V 235.2 Z"
         style="fill:none;stroke:#000000;stroke-width:0.175598;stroke-linecap:butt;stroke-linejoin:miter;stroke-miterlimit:4;stroke-dasharray:none;stroke-opacity:1"
         id="path1431" /></g><g
       id="g1437"
       transform="matrix(0,1.1052122,-1.1309185,0,981.03491,-662.83459)"
       style="stroke-width:0.178893;stroke-miterlimit:4;stroke-dasharray:none"><path
         d="m 562.56,235.67999 h 15.20001 V 247.2 H 562.56 Z"
         style="fill:none;stroke:#000000;stroke-width:0.178893;stroke-linecap:butt;stroke-linejoin:miter;stroke-miterlimit:4;stroke-dasharray:none;stroke-opacity:1"
         id="path1435" /></g><g
       id="g1441"
       transform="matrix(0,1.1307826,-1.147198,0,1067.6744,-830.43789)"
       style="stroke-width:0.175598;stroke-miterlimit:4;stroke-dasharray:none"><path
         d="m 653.76001,235.2 v 11.36 H 638.56 V 235.2 Z"
         style="fill:none;stroke:#000000;stroke-width:0.175598;stroke-linecap:butt;stroke-linejoin:miter;stroke-miterlimit:4;stroke-dasharray:none;stroke-opacity:1"
         id="path1439" /></g><g
       id="g1445"
       transform="matrix(0,1.1307826,-1.147198,0,984.32079,-830.43789)"
       style="stroke-width:0.175598;stroke-miterlimit:4;stroke-dasharray:none"><path
         d="m 653.76001,235.2 v 11.36 H 638.56 V 235.2 Z"
         style="fill:none;stroke:#000000;stroke-width:0.175598;stroke-linecap:butt;stroke-linejoin:miter;stroke-miterlimit:4;stroke-dasharray:none;stroke-opacity:1"
         id="path1443" /></g><rect
       style="fill:none;stroke:#000000;stroke-width:0.2"
       id="rect2192"
       width="14.91811"
       height="196.33543"
       x="428.50671"
       y="87.68116" /><rect
       style="fill:none;stroke:#000000;stroke-width:0.2"
       id="rect2274"
       width="14.91811"
       height="196.33543"
       x="460.32654"
       y="84.145622" /><rect
       style="fill:none;stroke:#000000;stroke-width:0.2"
       id="rect2276"
       width="14.91811"
       height="196.33543"
       x="497.80322"
       y="88.388268" /><rect
       style="fill:none;stroke:#000000;stroke-width:0.2"
       id="rect2278"
       width="14.91811"
       height="196.33543"
       x="540.93671"
       y="89.095375" /><path
       style="fill:none;stroke:#000000;stroke-width:0.2"
       d="m 725.87187,106.49298 h 47.80078 V 58.692202 h -47.80078 z"
       id="path2362" /><path
       style="fill:none;stroke:#000000;stroke-width:0.2"
       d="M 713.57695,125.39136 V 110.47339 H 702.43827 V 58.492932 H 713.5164 V 43.57497 H 702.43827 V 30.90308 h 94.48829 v 12.66993 h -10.97071 v 14.917962 h 10.97071 v 51.982418 h -11.13868 v 14.91797 z"
       id="path2364" /><path
       style="fill:none;stroke:#000000;stroke-width:0.2"
       d="m 616.97743,223.8727 h 47.80078 v -47.80078 h -47.80078 z"
       id="path2755" /><path
       style="fill:none;stroke:#000000;stroke-width:0.2"
       d="m 604.68251,242.77108 v -14.91797 h -11.13868 v -51.98046 h 11.07813 V 160.95469 H 593.54383 V 148.2828 h 94.48829 v 12.66993 h -10.97071 v 14.91796 h 10.97071 v 51.98242 h -11.13868 v 14.91797 z"
       id="path2757" /></g></svg>
