<?xml version="1.0" encoding="UTF-8" standalone="no"?>
<!-- Created with Inkscape (http://www.inkscape.org/) -->

<svg
   width="210mm"
   height="297mm"
   viewBox="0 0 210 297"
   version="1.1"
   id="svg5"
   inkscape:version="1.1.1 (3bf5ae0d25, 2021-09-20)"
   sodipodi:docname="Gan Bottle Holder Bottom.svg"
   xmlns:inkscape="http://www.inkscape.org/namespaces/inkscape"
   xmlns:sodipodi="http://sodipodi.sourceforge.net/DTD/sodipodi-0.dtd"
   xmlns="http://www.w3.org/2000/svg"
   xmlns:svg="http://www.w3.org/2000/svg">
  <sodipodi:namedview
     id="namedview7"
     pagecolor="#ffffff"
     bordercolor="#666666"
     borderopacity="1.0"
     inkscape:pageshadow="2"
     inkscape:pageopacity="0.0"
     inkscape:pagecheckerboard="0"
     inkscape:document-units="mm"
     showgrid="false"
     inkscape:zoom="1"
     inkscape:cx="590.5"
     inkscape:cy="281.5"
     inkscape:window-width="1366"
     inkscape:window-height="715"
     inkscape:window-x="-8"
     inkscape:window-y="-8"
     inkscape:window-maximized="1"
     inkscape:current-layer="layer1" />
  <defs
     id="defs2" />
  <g
     inkscape:label="Layer 1"
     inkscape:groupmode="layer"
     id="layer1">
    <path
       style="fill:none;stroke:#000000;stroke-width:0.1;stroke-miterlimit:4;stroke-dasharray:none;stroke-opacity:1"
       d="m 154.29188,55.444436 h 11.87937 v 11.87937 h -11.87937 z"
       id="path3942" />
    <path
       style="fill:none;stroke:#000000;stroke-width:0.100344;stroke-miterlimit:4;stroke-dasharray:none;stroke-opacity:1"
       d="m 131.5685,31.461414 v 6.73616 h 2.66977 v 9.200351 h -2.66977 v 7.028816 h 2.66977 v 9.199829 h -2.66977 v 7.734499 h 58.89966 V 63.62657 h -2.66977 v -9.200351 h 2.66977 v -6.73616 h -2.66977 v -9.200351 h 2.66977 v -7.028294 h -8.6954 v 2.68419 h -9.04466 v -2.68419 h -7.69942 v 2.68419 h -9.04465 v -2.68419 h -7.69115 v 2.68419 h -9.04465 v -2.68419 z"
       id="rect1095" />
    <rect
       style="fill:none;stroke:#000000;stroke-width:0.1;stroke-miterlimit:4;stroke-dasharray:none"
       id="rect3858"
       width="3.0328796"
       height="4.0328798"
       x="64.319748"
       y="-172.31421"
       transform="rotate(90)" />
    <rect
       style="fill:none;stroke:#000000;stroke-width:0.1;stroke-miterlimit:4;stroke-dasharray:none"
       id="rect3962"
       height="4.0328927"
       x="51.460999"
       y="-172.31888"
       width="3.0328929"
       transform="rotate(90)" />
    <rect
       style="fill:none;stroke:#000000;stroke-width:0.1;stroke-miterlimit:4;stroke-dasharray:none"
       id="rect3964"
       width="4.0328798"
       height="3.0328796"
       x="148.168"
       y="64.461983" />
    <rect
       style="fill:none;stroke:#000000;stroke-width:0.1;stroke-miterlimit:4;stroke-dasharray:none"
       id="rect3966"
       width="4.0328798"
       height="3.0328798"
       x="148.168"
       y="51.460999" />
    <path
       id="path4209"
       style="fill:none;stroke:#000000;stroke-width:0.1;stroke-miterlimit:4;stroke-dasharray:none"
       d="m 49.029794,58.241903 v 0.499701 h 0.0015 v 2.832328 39.026018 2.83592 2.90731 h 3.901361 v -2.49697 h -2.038229 v -0.41034 h 0.0026 v -2.83592 h 1.963863 V 61.573932 H 50.89703 v -2.832328 h 0.01912 v -0.499701 z" />
    <path
       id="rect37"
       style="fill:none;stroke:#000000;stroke-width:0.1;stroke-miterlimit:4;stroke-dasharray:none"
       d="m 30.261767,27.398639 v 2.890134 H 28.35629 v 10.110849 h 1.905477 v 2.889621 H 28.35629 v 0.993676 h -0.0036 v 1.015759 H 48.252729 V 44.283432 43.29027 h -1.910125 v -2.88962 h 1.910125 V 30.288773 h -1.905476 v -2.890134 z m 2.090961,3.983435 H 44.105925 V 43.09667 H 32.352728 Z" />
    <path
       id="path4362"
       style="fill:none;stroke:#000000;stroke-width:0.1;stroke-miterlimit:4;stroke-dasharray:none"
       d="m 79.288673,58.87276 v 0.499692 h -0.0015 v 2.832271 39.025227 2.83586 2.90726 h -3.898808 v -2.49693 h 2.036944 v -0.41033 h -0.0026 v -2.83586 H 75.46014 V 62.204723 h 1.962572 v -2.832271 h -0.01911 V 58.87276 Z" />
    <path
       id="path4371"
       style="fill:none;stroke:#000000;stroke-width:0.1;stroke-miterlimit:4;stroke-dasharray:none"
       d="m 65.617082,58.725668 v 0.499692 h -0.0015 v 2.83227 39.02522 2.83585 2.90724 H 61.71422 v -2.49691 h 2.038278 v -0.41033 h -0.0026 v -2.83585 H 61.786041 V 62.05763 h 1.963858 v -2.83227 h -0.01912 v -0.499692 z" />
    <path
       id="path4381"
       style="fill:none;stroke:#000000;stroke-width:0.1;stroke-miterlimit:4;stroke-dasharray:none"
       d="m 31.194626,53.634294 v 0.499702 h 0.0015 v 2.832328 39.026007 2.835929 2.90731 h 3.90136 V 99.238596 H 33.059208 V 98.82826 h 0.0026 v -2.835929 h 1.963858 V 56.966324 h -1.963858 v -2.832328 h 0.01912 v -0.499702 z" />
    <path
       id="path877"
       style="fill:none;stroke:#000000;stroke-width:0.1;stroke-miterlimit:4;stroke-dasharray:none"
       d="m 152.94604,80.336347 v 2.890134 h -1.90548 V 93.33733 h 1.90548 v 2.889621 h -1.90548 v 0.993676 h -0.004 v 1.015759 H 170.9366 V 97.22114 96.227978 h -1.91012 v -2.88962 h 1.91012 V 83.226481 h -1.90547 v -2.890134 z m 2.09096,3.983435 h 11.7532 V 96.034378 H 155.037 Z" />
    <g
       id="g12"
       transform="matrix(0.35277777,0,0,0.35277777,146.46969,-38.86752)" />
    <g
       id="g16"
       transform="matrix(0.35277777,0,0,0.35277777,146.46969,-38.86752)" />
    <g
       id="g20"
       transform="matrix(0.35277777,0,0,0.35277777,146.46969,-38.86752)" />
    <g
       id="g24"
       transform="matrix(0.35277777,0,0,0.35277777,146.46969,-38.86752)" />
    <g
       id="g28"
       transform="matrix(0.35277777,0,0,0.35277777,146.46969,-38.86752)" />
    <g
       id="g32"
       transform="matrix(0.35277777,0,0,0.35277777,146.46969,-38.86752)" />
    <g
       id="g36"
       transform="matrix(0.35277777,0,0,0.35277777,146.46969,-38.86752)" />
    <g
       id="g40"
       transform="matrix(0.35277777,0,0,0.35277777,146.46969,-38.86752)" />
  </g>
</svg>
