<?xml version="1.0" encoding="UTF-8" standalone="no"?>
<!-- Created with Inkscape (http://www.inkscape.org/) -->

<svg
   version="1.1"
   id="svg2"
   xml:space="preserve"
   width="1026.5269"
   height="809.65533"
   viewBox="0 0 1026.5269 809.65533"
   sodipodi:docname="Gan Bottle Holder Bottom original.svg"
   inkscape:version="1.1.1 (3bf5ae0d25, 2021-09-20)"
   xmlns:inkscape="http://www.inkscape.org/namespaces/inkscape"
   xmlns:sodipodi="http://sodipodi.sourceforge.net/DTD/sodipodi-0.dtd"
   xmlns="http://www.w3.org/2000/svg"
   xmlns:svg="http://www.w3.org/2000/svg"><defs
     id="defs6" /><sodipodi:namedview
     id="namedview4"
     pagecolor="#ffffff"
     bordercolor="#666666"
     borderopacity="1.0"
     inkscape:pageshadow="2"
     inkscape:pageopacity="0.0"
     inkscape:pagecheckerboard="0"
     showgrid="false"
     inkscape:zoom="0.65459953"
     inkscape:cx="512.5271"
     inkscape:cy="405.59149"
     inkscape:window-width="1366"
     inkscape:window-height="715"
     inkscape:window-x="-8"
     inkscape:window-y="-8"
     inkscape:window-maximized="1"
     inkscape:current-layer="g8" /><g
     id="g8"
     inkscape:groupmode="layer"
     inkscape:label="Gan Bottle Holder Bottom"
     transform="matrix(1.3333333,0,0,1.3333333,0,1.5574717e-5)"><g
       id="g10"><g
         id="g12" /><g
         id="g16" /><g
         id="g20" /><g
         id="g24" /><g
         id="g28" /><g
         id="g32" /><g
         id="g36" /><g
         id="g40" /><g
         id="g44"><path
           style="fill:none;stroke:#000000;stroke-width:0.727095;stroke-linecap:butt;stroke-linejoin:miter;stroke-miterlimit:4;stroke-dasharray:none;stroke-opacity:1"
           d="m 369.141,402.484 h 27.602 v 27.602 h -27.602 z"
           id="path233" /><path
           style="fill:none;stroke:#000000;stroke-width:0.727095;stroke-linecap:butt;stroke-linejoin:miter;stroke-miterlimit:4;stroke-dasharray:none;stroke-opacity:1"
           d="m 299.691,359.996 v 19.02 h 7.547 v 25.972 h -7.547 v 19.84 h 7.547 v 25.973 h -7.547 v 21.836 h 166.497 v -21.836 h -7.547 v -25.973 h 7.547 v -19.016 h -7.547 V 379.84 h 7.547 v -19.844 h -24.579 v 7.578 h -25.566 v -7.578 h -21.766 v 7.578 h -25.566 v -7.578 h -21.742 v 7.578 h -25.567 v -7.578 z"
           id="path231" /><path
           style="fill:none;stroke:#000000;stroke-width:0.727095;stroke-linecap:butt;stroke-linejoin:miter;stroke-miterlimit:4;stroke-dasharray:none;stroke-opacity:1"
           d="m 191.449,359.469 v 7.41 h -41.691 v 6.762 h -7.653 v 27.445 h 7.653 v 29.402 h -7.653 v 27.446 h 7.653 v 14.171 H 275.43 v -22.398 h 7.66 v -26.094 h -7.727 v -19.058 h 7.727 v -26.028 h -7.727 v -11.648 h -41.691 v -7.41 z"
           id="path229" /><path
           style="fill:none;stroke:#000000;stroke-width:0.727095;stroke-linecap:butt;stroke-linejoin:miter;stroke-miterlimit:4;stroke-dasharray:none;stroke-opacity:1"
           d="m 536.207,357.75 v 7.41 h -41.691 v 12.383 h -7.711 v 26.019 h 7.726 v 19.016 h -7.726 v 26.035 h 7.672 v 21.774 h 125.66 v -14.172 h 7.652 V 428.77 h -7.652 v -29.403 h 7.652 v -27.445 h -7.652 v -6.762 h -41.692 v -7.41 z"
           id="path227" /><path
           style="fill:none;stroke:#000000;stroke-width:0.727095;stroke-linecap:butt;stroke-linejoin:miter;stroke-miterlimit:4;stroke-dasharray:none;stroke-opacity:1"
           d="m 358.598,408.578 h 7.707 v 14.141 h -7.707 z"
           id="path225" /><path
           style="fill:none;stroke:#000000;stroke-width:0.727095;stroke-linecap:butt;stroke-linejoin:miter;stroke-miterlimit:4;stroke-dasharray:none;stroke-opacity:1"
           d="m 399.574,408.578 h 7.707 v 14.141 h -7.707 z"
           id="path223" /><path
           style="fill:none;stroke:#000000;stroke-width:0.727095;stroke-linecap:butt;stroke-linejoin:miter;stroke-miterlimit:4;stroke-dasharray:none;stroke-opacity:1"
           d="m 375.234,432.918 h 14.141 v 7.707 h -14.141 z"
           id="path221" /><path
           style="fill:none;stroke:#000000;stroke-width:0.727095;stroke-linecap:butt;stroke-linejoin:miter;stroke-miterlimit:4;stroke-dasharray:none;stroke-opacity:1"
           d="m 375.234,391.941 h 14.141 v 7.707 h -14.141 z"
           id="path219" /><path
           style="fill:none;stroke:#000000;stroke-width:0.727095;stroke-linecap:butt;stroke-linejoin:miter;stroke-miterlimit:4;stroke-dasharray:none;stroke-opacity:1"
           d="m 307.723,149.598 v 12.757 h -7.219 v 27.45 h 7.219 v 30.304 h -7.219 v 27.45 h 7.219 v 28.347 h -7.219 v 27.449 h 7.219 v 12.758 h 41.988 v -7.41 h 42.519 v 7.41 h 42.071 v -21.769 h 7.211 v -25.512 h -7.211 v -21.801 h 7.211 v -25.515 h -7.211 v -21.797 h 7.211 V 174.18 h -7.188 v -24.582 h -42.078 v 7.41 h -42.539 v -7.41 z"
           id="path46" /></g></g><text
       xml:space="preserve"
       style="font-style:normal;font-weight:normal;font-size:30px;line-height:1.25;font-family:sans-serif;fill:#000000;fill-opacity:1;stroke:none;stroke-width:0.75"
       x="-28.643467"
       y="202.79573"
       id="text643"><tspan
         sodipodi:role="line"
         id="tspan641"
         style="stroke-width:0.75"
         x="-28.643467"
         y="202.79573">ukuran pcb</tspan><tspan
         sodipodi:role="line"
         style="stroke-width:0.75"
         x="-28.643467"
         y="240.29573"
         id="tspan645">3 x 5.5</tspan></text></g></svg>
