<?xml version="1.0" encoding="UTF-8" standalone="no"?>
<!-- Created with Inkscape (http://www.inkscape.org/) -->

<svg
   width="594mm"
   height="841mm"
   viewBox="0 0 594 841"
   version="1.1"
   id="svg3735"
   inkscape:version="1.1.1 (3bf5ae0d25, 2021-09-20)"
   sodipodi:docname="Main Body.svg"
   xmlns:inkscape="http://www.inkscape.org/namespaces/inkscape"
   xmlns:sodipodi="http://sodipodi.sourceforge.net/DTD/sodipodi-0.dtd"
   xmlns="http://www.w3.org/2000/svg"
   xmlns:svg="http://www.w3.org/2000/svg"
   xmlns:rdf="http://www.w3.org/1999/02/22-rdf-syntax-ns#"
   xmlns:cc="http://creativecommons.org/ns#"
   xmlns:dc="http://purl.org/dc/elements/1.1/">
  <metadata
     id="metadata27">
    <rdf:RDF>
      <cc:Work
         rdf:about="">
        <dc:format>image/svg+xml</dc:format>
        <dc:type
           rdf:resource="http://purl.org/dc/dcmitype/StillImage" />
      </cc:Work>
    </rdf:RDF>
  </metadata>
  <sodipodi:namedview
     id="namedview3737"
     pagecolor="#ffffff"
     bordercolor="#666666"
     borderopacity="1.0"
     inkscape:pageshadow="2"
     inkscape:pageopacity="0.0"
     inkscape:pagecheckerboard="0"
     inkscape:document-units="mm"
     showgrid="false"
     inkscape:zoom="0.7071068"
     inkscape:cx="2250.7208"
     inkscape:cy="1004.7987"
     inkscape:window-width="1366"
     inkscape:window-height="715"
     inkscape:window-x="-8"
     inkscape:window-y="-8"
     inkscape:window-maximized="1"
     inkscape:current-layer="layer1"
     showguides="true"
     units="mm" />
  <defs
     id="defs3732" />
  <g
     inkscape:label="Layer 1"
     inkscape:groupmode="layer"
     id="layer1">
    <path
       style="fill:none;stroke:#000000;stroke-width:0.263939"
       d="m 402.21953,75.474677 v 0.762228 h 0.75978 v -0.762228 z"
       id="rect5193" />
    <path
       id="path1279"
       style="fill:none;stroke:#000000;stroke-width:0.456087"
       d="M 1873.7148 379.89258 L 1873.7148 390.84961 L 1722.7754 390.84961 L 1722.7754 418.56055 L 1712.418 418.56055 L 1712.418 531.32227 L 1722.7754 531.32227 L 1722.7754 683.85156 L 1712.418 683.85156 L 1712.418 796.68945 L 1722.7305 796.68945 L 1722.7305 872.28125 L 1737.6484 872.28125 L 1737.6484 902.31836 L 1722.7305 902.31836 L 1722.7305 948.83984 L 1712.418 948.83984 L 1712.418 1061.6738 L 1722.7227 1061.6738 L 1722.7227 1363.9102 L 1722.7227 1400.7676 L 1722.7227 1401.3125 L 1722.7227 1431.0996 L 1712.418 1431.0996 L 1712.418 1543.8887 L 1722.7773 1543.8887 L 1722.7773 1608.582 L 1723.6777 1608.582 L 1723.6777 1606.8477 L 1874.6582 1606.8477 L 1874.6582 1619.1211 L 1891.2539 1619.1211 L 1928.0918 1619.1211 L 2063.6582 1619.1211 L 2063.6582 1606.8477 L 2203.3008 1606.8477 L 2203.3008 1521.2715 L 2203.3008 907.66992 L 2074.2773 907.66992 L 2074.2773 808.84766 L 2203.3008 808.84766 L 2203.3008 763.49219 L 1983.5312 763.49219 L 1983.5312 751.2207 L 2203.3008 751.2207 L 2203.3008 392.16406 L 2063.6582 392.16406 L 2063.6582 379.89258 L 1873.7148 379.89258 z M 1749.9629 637.10156 A 10.88023 10.885041 0 0 1 1760.8457 647.98633 A 10.88023 10.885041 0 0 1 1749.9629 658.87109 A 10.88023 10.885041 0 0 1 1739.084 647.98633 A 10.88023 10.885041 0 0 1 1749.9629 637.10156 z M 1749.9629 674.89648 A 10.880228 10.885048 0 0 1 1760.8457 685.78125 A 10.880228 10.885048 0 0 1 1749.9629 696.66602 A 10.880228 10.885048 0 0 1 1739.084 685.78125 A 10.880228 10.885048 0 0 1 1749.9629 674.89648 z M 1889.7461 727.81055 A 10.88023 10.885041 0 0 1 1900.625 738.69531 A 10.88023 10.885041 0 0 1 1889.7461 749.58008 A 10.88023 10.885041 0 0 1 1878.8652 738.69531 A 10.88023 10.885041 0 0 1 1889.7461 727.81055 z M 1889.7461 765.60547 A 10.880228 10.885048 0 0 1 1900.625 776.49023 A 10.880228 10.885048 0 0 1 1889.7461 787.375 A 10.880228 10.885048 0 0 1 1878.8652 776.49023 A 10.880228 10.885048 0 0 1 1889.7461 765.60547 z "
       transform="scale(0.26458333)" />
    <path
       id="path1232"
       style="fill:none;stroke:#000000;stroke-width:0.120673"
       d="m 325.54104,111.14128 v 2.89905 h -39.93813 v 321.73281 h 39.89213 v 3.24733 h 50.29771 v -3.2468 h 36.9471 v -16.88685 h 2.73368 v -29.83849 h -2.73368 v -97.55217 h 2.73368 v -29.8204 h -2.7404 v -40.33862 h 2.7404 v -29.83126 h -2.7404 v -40.32777 h 2.7404 v -29.82454 h -2.73833 v -6.96546 h -36.9471 v -3.24683 z" />
    <rect
       style="fill:none;stroke:#000000;stroke-width:0.0999997;stroke-miterlimit:4;stroke-dasharray:none"
       id="rect1893"
       width="197.89999"
       height="64.899994"
       x="99.257362"
       y="-191.75459"
       transform="rotate(90)" />
    <rect
       style="fill:none;stroke:#000000;stroke-width:0.0999997;stroke-miterlimit:4;stroke-dasharray:none"
       id="rect2018"
       width="64.900002"
       height="59.900002"
       x="128.71445"
       y="323.88205" />
    <path
       style="fill:none;stroke:#000000;stroke-width:0.1"
       d="m 60.725878,146.23644 h 10.40195 v 3.40185 h -10.40195 z"
       id="path31" />
    <path
       style="fill:none;stroke:#000000;stroke-width:0.1"
       d="m 40.352958,146.23644 h 10.40195 v 3.40185 h -10.40195 z"
       id="path29" />
    <path
       style="fill:none;stroke:#000000;stroke-width:0.1"
       d="m 80.508128,146.23591 h 10.40195 v 3.40185 h -10.40195 z"
       id="path27" />
    <path
       style="fill:none;stroke:#000000;stroke-width:0.1"
       d="m 35.813128,97.573781 v 16.400039 h 3.49798 v 10.50015 h -3.49798 v 9.50018 h 3.50005 v 10.49962 h -3.50005 v 12.99972 h 59.89971 v -12.99972 h -3.50005 v -10.49962 h 3.50005 v -9.50018 h -3.50005 v -10.50015 h 3.50005 V 97.573781 Z"
       id="path4971" />
    <path
       style="fill:none;stroke:#000000;stroke-width:0.1"
       d="m 76.862968,119.02359 a 1.45,1.4499999 0 0 1 -1.45,1.45 1.45,1.4499999 0 0 1 -1.45,-1.45 1.45,1.4499999 0 0 1 1.45,-1.45 1.45,1.4499999 0 0 1 1.45,1.45 z"
       id="path4969"
       inkscape:connector-curvature="0" />
    <path
       style="fill:none;stroke:#000000;stroke-width:0.1"
       d="m 56.862958,119.02359 a 1.45,1.4499999 0 0 1 -1.45,1.45 1.45,1.4499999 0 0 1 -1.45,-1.45 1.45,1.4499999 0 0 1 1.45,-1.45 1.45,1.4499999 0 0 1 1.45,1.45 z"
       id="ellipse4237"
       inkscape:connector-curvature="0" />
    <text
       xml:space="preserve"
       style="font-style:normal;font-weight:normal;font-size:10.5833px;line-height:1.25;font-family:sans-serif;fill:#000000;fill-opacity:1;stroke:none;stroke-width:0.264583"
       x="73.535454"
       y="65.204094"
       id="text1065"><tspan
         sodipodi:role="line"
         id="tspan1063"
         style="stroke-width:0.264583"
         x="73.535454"
         y="65.204094">Warna hitam 3 mm</tspan></text>
    <path
       id="rect1301"
       style="fill:none;stroke:#000000;stroke-width:0.0529167"
       d="m 292.72496,481.28196 v 64.94696 h 39.55261 v -3.24684 h 0.447 49.94734 0.44752 v 3.24684 h 39.55262 v -14.44668 h 0.0527 v -0.80356 h 2.94712 v -34.44701 h -2.94712 v -0.24958 h -0.0527 v -15.00013 h -39.55262 v 3.24737 h -0.44752 v -5.3e-4 h -49.94734 v 5.3e-4 h -0.447 v -3.24737 z" />
    <path
       id="path3190"
       style="fill:none;stroke:#000000;stroke-width:0.0529167"
       d="m 446.4475,478.77954 v 64.94696 h 39.55261 v -3.24684 h 0.447 49.94735 0.44752 v 3.24684 h 39.55262 v -14.44668 h 0.0527 v -0.80356 h 2.94712 v -34.44701 h -2.94712 v -0.24958 h -0.0527 v -15.00013 h -39.55262 v 3.24737 h -0.44752 v -5.3e-4 h -49.94735 v 5.3e-4 h -0.447 v -3.24737 z" />
    <text
       xml:space="preserve"
       style="font-style:normal;font-weight:normal;font-size:10.5833px;line-height:1.25;font-family:sans-serif;fill:#000000;fill-opacity:1;stroke:none;stroke-width:0.264583"
       x="405.60822"
       y="68.100273"
       id="text4316"><tspan
         sodipodi:role="line"
         id="tspan4314"
         style="stroke-width:0.264583"
         x="405.60822"
         y="68.100273">Putih 3 mm</tspan></text>
    <path
       id="rect287"
       style="fill:none;stroke:#000000;stroke-width:0.0529167"
       transform="rotate(-90)"
       d="m -250.43474,285.60245 h 26.14709 v 34.14708 h -26.14709 z m 41.39429,0 v 58.14708 h -3.24708 v -58.14708 z m -7.46055,85.7611 a 2.8800024,2.8800002 0 0 1 -2.88,-2.88 2.8800024,2.8800002 0 0 1 2.88,-2.88 2.8800024,2.8800002 0 0 1 2.88,2.88 2.8800024,2.8800002 0 0 1 -2.88,2.88 z m 10,0 a 2.8800004,2.8800003 0 0 1 -2.88,-2.88 2.8800004,2.8800003 0 0 1 2.88,-2.88 2.8800004,2.8800003 0 0 1 2.88,2.88 2.8800004,2.8800003 0 0 1 -2.88,2.88 z m 14,37 a 2.8800024,2.8800002 0 0 1 -2.88,-2.88 2.8800024,2.8800002 0 0 1 2.88,-2.88 2.8800024,2.8800002 0 0 1 2.88,2.88 2.8800024,2.8800002 0 0 1 -2.88,2.88 z m 10,0 a 2.8800004,2.8800003 0 0 1 -2.88,-2.88 2.8800004,2.8800003 0 0 1 2.88,-2.88 2.8800004,2.8800003 0 0 1 2.88,2.88 2.8800004,2.8800003 0 0 1 -2.88,2.88 z" />
  </g>
</svg>
