<?xml version="1.0" encoding="UTF-8" standalone="no"?>
<!-- Created with Inkscape (http://www.inkscape.org/) -->

<svg
   width="594mm"
   height="841mm"
   viewBox="0 0 594 841"
   version="1.1"
   id="svg3735"
   inkscape:version="1.1.1 (3bf5ae0d25, 2021-09-20)"
   sodipodi:docname="Main Body rev 4.svg"
   xmlns:inkscape="http://www.inkscape.org/namespaces/inkscape"
   xmlns:sodipodi="http://sodipodi.sourceforge.net/DTD/sodipodi-0.dtd"
   xmlns="http://www.w3.org/2000/svg"
   xmlns:svg="http://www.w3.org/2000/svg"
   xmlns:rdf="http://www.w3.org/1999/02/22-rdf-syntax-ns#"
   xmlns:cc="http://creativecommons.org/ns#"
   xmlns:dc="http://purl.org/dc/elements/1.1/">
  <metadata
     id="metadata27">
    <rdf:RDF>
      <cc:Work
         rdf:about="">
        <dc:format>image/svg+xml</dc:format>
        <dc:type
           rdf:resource="http://purl.org/dc/dcmitype/StillImage" />
      </cc:Work>
    </rdf:RDF>
  </metadata>
  <sodipodi:namedview
     id="namedview3737"
     pagecolor="#ffffff"
     bordercolor="#666666"
     borderopacity="1.0"
     inkscape:pageshadow="2"
     inkscape:pageopacity="0.0"
     inkscape:pagecheckerboard="0"
     inkscape:document-units="mm"
     showgrid="false"
     inkscape:zoom="0.35355339"
     inkscape:cx="660.43773"
     inkscape:cy="1203.4957"
     inkscape:window-width="1366"
     inkscape:window-height="715"
     inkscape:window-x="-8"
     inkscape:window-y="-8"
     inkscape:window-maximized="1"
     inkscape:current-layer="layer1"
     showguides="false"
     units="mm" />
  <defs
     id="defs3732" />
  <g
     inkscape:label="Layer 1"
     inkscape:groupmode="layer"
     id="layer1">
    <path
       style="fill:none;stroke:#000000;stroke-width:0.263939"
       d="m 284.84295,113.27835 v 0.76223 h 0.75978 v -0.76223 z"
       id="rect5193" />
    <path
       style="fill:none;stroke:#000000;stroke-width:0.120673"
       d="m 367.19794,208.62152 a 1.5897055,1.5897061 0 0 1 1.58966,1.58966 1.5897055,1.5897061 0 0 1 -1.58966,1.58967 1.5897055,1.5897061 0 0 1 -1.58967,-1.58967 1.5897055,1.5897061 0 0 1 1.58967,-1.58966 z"
       id="path32" />
    <path
       style="fill:none;stroke:#000000;stroke-width:0.120673"
       d="m 367.19794,198.62134 a 1.5897056,1.5897024 0 0 1 1.58966,1.58966 1.5897056,1.5897024 0 0 1 -1.58966,1.58967 1.5897056,1.5897024 0 0 1 -1.58967,-1.58967 1.5897056,1.5897024 0 0 1 1.58967,-1.58966 z"
       id="path30" />
    <path
       style="fill:none;stroke:#000000;stroke-width:0.120673"
       d="m 404.20008,189.62098 a 1.5895592,1.5897033 0 0 1 1.58952,1.58966 1.5895592,1.5897033 0 0 1 -1.58952,1.58967 1.5895592,1.5897033 0 0 1 -1.5898,-1.58967 1.5895592,1.5897033 0 0 1 1.5898,-1.58966 z"
       id="path28" />
    <path
       style="fill:none;stroke:#000000;stroke-width:0.120673"
       d="m 404.20008,179.62107 a 1.5895594,1.5897023 0 0 1 1.58952,1.58966 1.5895594,1.5897023 0 0 1 -1.58952,1.58967 1.5895594,1.5897023 0 0 1 -1.5898,-1.58967 1.5895594,1.5897023 0 0 1 1.5898,-1.58966 z"
       id="path26" />
    <path
       style="fill:none;stroke:#000000;stroke-width:0.120673"
       d="m 325.54321,111.14154 v 2.89904 h -39.94048 v 94.99989 H 343.753 v 3.24683 h -58.15027 v 12.0003 h 34.12862 v 26.14724 h -34.12862 v 185.33803 h 39.8945 v 3.24737 h 50.3007 v -3.24634 h 36.94927 v -16.88732 h 2.73386 V 389.04809 H 412.7472 V 291.4959 h 2.73386 v -29.81989 h -2.74058 v -40.33862 h 2.74058 v -29.83177 h -2.74058 v -40.32777 h 2.74058 v -29.82454 h -2.73849 v -6.96495 h -36.9493 v -3.24682 z"
       id="path1232" />
    <rect
       style="fill:none;stroke:#000000;stroke-width:0.0999997;stroke-miterlimit:4;stroke-dasharray:none"
       id="rect2018"
       width="64.900002"
       height="69.900002"
       x="167.49707"
       y="275.82501" />
    <path
       id="rect1301"
       style="fill:none;stroke:#000000;stroke-width:0.0529167"
       d="m 292.72496,481.28196 v 64.94696 h 39.55261 v -3.24684 h 0.447 49.94734 0.44752 v 3.24684 h 39.55262 v -14.44668 h 0.0527 v -0.80356 h 2.94712 v -34.44701 h -2.94712 v -0.24958 h -0.0527 v -15.00013 h -39.55262 v 3.24737 h -0.44752 v -5.3e-4 h -49.94734 v 5.3e-4 h -0.447 v -3.24737 z" />
    <path
       id="path3190"
       style="fill:none;stroke:#000000;stroke-width:0.0529167"
       d="m 446.4475,478.77954 v 64.94696 h 39.55261 v -3.24684 h 0.447 49.94735 0.44752 v 3.24684 h 39.55262 v -14.44668 h 0.0527 v -0.80356 h 2.94712 v -34.44701 h -2.94712 v -0.24958 h -0.0527 v -15.00013 h -39.55262 v 3.24737 h -0.44752 v -5.3e-4 h -49.94735 v 5.3e-4 h -0.447 v -3.24737 z" />
    <text
       xml:space="preserve"
       style="font-style:normal;font-weight:normal;font-size:10.5833px;line-height:1.25;font-family:sans-serif;fill:#000000;fill-opacity:1;stroke:none;stroke-width:0.264583"
       x="285.98657"
       y="94.678635"
       id="text4316"><tspan
         sodipodi:role="line"
         id="tspan4314"
         style="stroke-width:0.264583"
         x="285.98657"
         y="94.678635">Putih 3 mm</tspan></text>
    <path
       id="rect244"
       style="fill:none;stroke:#000000;stroke-width:0.0529167"
       d="m 295.60246,275.82546 h 2.94708 v 99.94708 h -2.94708 z m 8.00036,0 h 2.94709 v 99.94708 h -2.94709 z" />
    <circle
       style="fill:none;stroke:#000000;stroke-width:0.0529167"
       id="path490"
       cx="212.97415"
       cy="287.03046"
       r="1.5" />
    <circle
       style="fill:none;stroke:#000000;stroke-width:0.0529167"
       id="circle572"
       cx="220.97455"
       cy="287.03046"
       r="1.5" />
    <circle
       style="fill:none;stroke:#000000;stroke-width:0.0529167"
       id="circle574"
       cx="212.97415"
       cy="337.0307"
       r="1.5" />
    <circle
       style="fill:none;stroke:#000000;stroke-width:0.0529167"
       id="circle576"
       cx="220.97455"
       cy="337.0307"
       r="1.5" />
    <text
       xml:space="preserve"
       style="font-style:normal;font-weight:normal;font-size:10.5833px;line-height:1.25;font-family:sans-serif;fill:#000000;fill-opacity:1;stroke:none;stroke-width:0.264583"
       x="166.24983"
       y="251.08476"
       id="text605"><tspan
         sodipodi:role="line"
         id="tspan603"
         style="stroke-width:0.264583"
         x="166.24983"
         y="251.08476">Hitam 3 mm</tspan></text>
  </g>
</svg>
