<?xml version="1.0" encoding="UTF-8" standalone="no"?>
<!-- Created with Inkscape (http://www.inkscape.org/) -->

<svg
   width="420mm"
   height="594mm"
   viewBox="0 0 420 594"
   version="1.1"
   id="svg3735"
   inkscape:version="1.1.1 (3bf5ae0d25, 2021-09-20)"
   sodipodi:docname="Main Body botttom setting.svg"
   xmlns:inkscape="http://www.inkscape.org/namespaces/inkscape"
   xmlns:sodipodi="http://sodipodi.sourceforge.net/DTD/sodipodi-0.dtd"
   xmlns="http://www.w3.org/2000/svg"
   xmlns:svg="http://www.w3.org/2000/svg"
   xmlns:rdf="http://www.w3.org/1999/02/22-rdf-syntax-ns#"
   xmlns:cc="http://creativecommons.org/ns#"
   xmlns:dc="http://purl.org/dc/elements/1.1/">
  <metadata
     id="metadata27">
    <rdf:RDF>
      <cc:Work
         rdf:about="">
        <dc:format>image/svg+xml</dc:format>
        <dc:type
           rdf:resource="http://purl.org/dc/dcmitype/StillImage" />
        <dc:title />
      </cc:Work>
    </rdf:RDF>
  </metadata>
  <sodipodi:namedview
     id="namedview3737"
     pagecolor="#ffffff"
     bordercolor="#666666"
     borderopacity="1.0"
     inkscape:pageshadow="2"
     inkscape:pageopacity="0.0"
     inkscape:pagecheckerboard="0"
     inkscape:document-units="mm"
     showgrid="false"
     inkscape:zoom="0.25000001"
     inkscape:cx="1142"
     inkscape:cy="1070"
     inkscape:window-width="1366"
     inkscape:window-height="715"
     inkscape:window-x="-8"
     inkscape:window-y="-8"
     inkscape:window-maximized="1"
     inkscape:current-layer="layer1"
     showguides="true" />
  <defs
     id="defs3732" />
  <g
     inkscape:label="Layer 1"
     inkscape:groupmode="layer"
     id="layer1"
     transform="translate(0,297)">
    <path
       style="fill:none;stroke:#000000;stroke-width:0.263939"
       d="m 252.98115,-159.36102 v 2.99775 h 0.1633 v 6.99492 h 2.55127 v 29.53619 h -2.55127 v 39.971725 h 2.55127 v 29.53618 h -2.55127 v 39.971716 h 2.55127 v 29.536181 h -2.55127 v 96.671608 h 2.55127 v 29.53671 h -2.55127 v 19.98535 h -0.1633 v 2.99773 h 15.00012 v -3.17035 h 34.87074 v 3.17035 h 14.86524 v -2.99773 -19.98535 h -2.55126 v -29.53671 h 2.55126 V 19.083907 h -2.55126 v -29.536699 h 2.55126 v -39.871463 h -2.55126 v -29.53618 h 2.55126 v -39.971725 h -2.55126 v -29.53619 h 2.55126 v -9.99267 h -14.70194 v 2.99775 h -34.87074 v -2.99775 z"
       id="path3804"
       inkscape:connector-curvature="0" />
    <path
       id="path100"
       style="fill:none;stroke:#000000;stroke-width:0.120673"
       d="m 315.16599,105.85534 a 2.8787274,2.8800004 0 0 1 2.87917,2.87993 2.8787274,2.8800004 0 0 1 -2.87917,2.87992 2.8787274,2.8800004 0 0 1 -2.87865,-2.87992 2.8787274,2.8800004 0 0 1 2.87865,-2.87993 z m 0,9.99991 a 2.8787271,2.8800022 0 0 1 2.87917,2.87992 2.8787271,2.8800022 0 0 1 -2.87917,2.87993 2.8787271,2.8800022 0 0 1 -2.87865,-2.87993 2.8787271,2.8800022 0 0 1 2.87865,-2.87992 z m 36.98397,14.00017 a 2.8787274,2.8800004 0 0 1 2.87866,2.87993 2.8787274,2.8800004 0 0 1 -2.87866,2.87993 2.8787274,2.8800004 0 0 1 -2.87865,-2.87993 2.8787274,2.8800004 0 0 1 2.87865,-2.87993 z m 0,9.99991 a 2.8787271,2.8800022 0 0 1 2.87866,2.87993 2.8787271,2.8800022 0 0 1 -2.87866,2.87993 2.8787271,2.8800022 0 0 1 -2.87865,-2.87993 2.8787271,2.8800022 0 0 1 2.87865,-2.87993 z"
       inkscape:connector-curvature="0" />
    <path
       style="fill:none;stroke:#000000;stroke-width:0.1"
       d="m 117.57272,551.53601 h 10.2 v -3.2 h -10.2 z"
       id="path4977"
       inkscape:connector-curvature="0" />
    <path
       style="fill:none;stroke:#000000;stroke-width:0.1"
       d="m 97.890195,551.53601 h 10.200015 v -3.2 H 97.890195 Z"
       id="path4975"
       inkscape:connector-curvature="0" />
    <path
       style="fill:none;stroke:#000000;stroke-width:0.1"
       d="m 77.517277,551.536 h 10.2 v -3.2 h -10.2 z"
       id="path4973"
       inkscape:connector-curvature="0" />
    <path
       id="ellipse4237"
       style="fill:none;stroke:#000000;stroke-width:0.1"
       d="m 103.65461,157.43402 a 1.45,1.4499999 0 0 1 -1.45,1.45 1.45,1.4499999 0 0 1 -1.45,-1.45 1.45,1.4499999 0 0 1 1.45,-1.45 1.45,1.4499999 0 0 1 1.45,1.45 z m 20.00001,0 a 1.45,1.4499999 0 0 1 -1.45,1.45 1.45,1.4499999 0 0 1 -1.45,-1.45 1.45,1.4499999 0 0 1 1.45,-1.45 1.45,1.4499999 0 0 1 1.45,1.45 z M 82.604782,135.98421 v 16.40004 h 3.497977 v 10.50015 h -3.497977 v 9.50018 h 3.500046 v 10.49962 h -3.500046 v 12.99972 H 142.50448 V 182.8842 h -3.50004 v -10.49962 h 3.50004 v -9.50018 h -3.50004 v -10.50015 h 3.50004 v -16.40004 z m 44.694948,51.66249 h 10.40194 v 3.40185 h -10.40194 z m -40.155174,5.3e-4 h 10.40195 v 3.40185 h -10.40195 z m 20.372914,0 h 10.40195 v 3.40185 h -10.40195 z"
       inkscape:connector-curvature="0" />
    <path
       style="fill:none;stroke:#000000;stroke-width:0.129427;stroke-miterlimit:4;stroke-dasharray:none;stroke-opacity:1"
       d="m 293.71449,-68.301565 h 3.29175 V 77.990177 h -3.29175 z"
       id="path4621"
       inkscape:connector-curvature="0" />
    <path
       style="fill:none;stroke:#000000;stroke-width:0.129427;stroke-miterlimit:4;stroke-dasharray:none;stroke-opacity:1"
       d="m 273.7145,-68.301565 h 3.29175 V 77.990177 h -3.29175 z"
       id="rect4611"
       inkscape:connector-curvature="0" />
    <text
       id="text4631"
       y="-220.01627"
       x="80.073944"
       style="font-style:normal;font-weight:normal;font-size:10.5833px;line-height:1.25;font-family:sans-serif;fill:#000000;fill-opacity:1;stroke:none;stroke-width:0.264583"
       xml:space="preserve"><tspan
         y="-220.01627"
         x="80.073944"
         style="stroke-width:0.264583"
         id="tspan4629"
         sodipodi:role="line">warna putih</tspan></text>
    <text
       xml:space="preserve"
       style="font-style:normal;font-weight:normal;font-size:10.5833px;line-height:1.25;font-family:sans-serif;fill:#000000;fill-opacity:1;stroke:none;stroke-width:0.264583"
       x="85.312431"
       y="220.01627"
       id="text4635"><tspan
         sodipodi:role="line"
         id="tspan4633"
         style="stroke-width:0.264583"
         x="85.312431"
         y="220.01627">warna hitam</tspan></text>
  </g>
</svg>
