<?xml version="1.0" encoding="UTF-8" standalone="no"?>
<!-- Created with Inkscape (http://www.inkscape.org/) -->

<svg
   width="594mm"
   height="841mm"
   viewBox="0 0 594 841"
   version="1.1"
   id="svg3735"
   inkscape:version="1.1.1 (3bf5ae0d25, 2021-09-20)"
   sodipodi:docname="Main Body rev 3.svg"
   xmlns:inkscape="http://www.inkscape.org/namespaces/inkscape"
   xmlns:sodipodi="http://sodipodi.sourceforge.net/DTD/sodipodi-0.dtd"
   xmlns="http://www.w3.org/2000/svg"
   xmlns:svg="http://www.w3.org/2000/svg"
   xmlns:rdf="http://www.w3.org/1999/02/22-rdf-syntax-ns#"
   xmlns:cc="http://creativecommons.org/ns#"
   xmlns:dc="http://purl.org/dc/elements/1.1/">
  <metadata
     id="metadata27">
    <rdf:RDF>
      <cc:Work
         rdf:about="">
        <dc:format>image/svg+xml</dc:format>
        <dc:type
           rdf:resource="http://purl.org/dc/dcmitype/StillImage" />
      </cc:Work>
    </rdf:RDF>
  </metadata>
  <sodipodi:namedview
     id="namedview3737"
     pagecolor="#ffffff"
     bordercolor="#666666"
     borderopacity="1.0"
     inkscape:pageshadow="2"
     inkscape:pageopacity="0.0"
     inkscape:pagecheckerboard="0"
     inkscape:document-units="mm"
     showgrid="false"
     inkscape:zoom="2"
     inkscape:cx="1632.75"
     inkscape:cy="779.74999"
     inkscape:window-width="1366"
     inkscape:window-height="715"
     inkscape:window-x="-8"
     inkscape:window-y="-8"
     inkscape:window-maximized="1"
     inkscape:current-layer="layer1"
     showguides="true"
     units="mm" />
  <defs
     id="defs3732" />
  <g
     inkscape:label="Layer 1"
     inkscape:groupmode="layer"
     id="layer1">
    <path
       style="fill:none;stroke:#000000;stroke-width:0.263939"
       d="m 402.21953,75.474677 v 0.762228 h 0.75978 v -0.762228 z"
       id="rect5193" />
    <path
       style="fill:none;stroke:#000000;stroke-width:0.120673"
       d="m 498.70622,197.56624 a 1.5897114,1.5897034 0 0 1 1.58952,1.58966 1.5897114,1.5897034 0 0 1 -1.58952,1.58967 1.5897114,1.5897034 0 0 1 -1.58981,-1.58967 1.5897114,1.5897034 0 0 1 1.58981,-1.58966 z"
       id="path60" />
    <path
       style="fill:none;stroke:#000000;stroke-width:0.120673"
       d="m 498.70622,187.56634 a 1.5897117,1.5897051 0 0 1 1.58952,1.58966 1.5897117,1.5897051 0 0 1 -1.58952,1.58967 1.5897117,1.5897051 0 0 1 -1.58981,-1.58967 1.5897117,1.5897051 0 0 1 1.58981,-1.58966 z"
       id="path58" />
    <path
       style="fill:none;stroke:#000000;stroke-width:0.120673"
       d="m 461.72201,178.56636 a 1.5895726,1.5897033 0 0 1 1.58995,1.58966 1.5895726,1.5897033 0 0 1 -1.58995,1.58967 1.5895726,1.5897033 0 0 1 -1.58938,-1.58967 1.5895726,1.5897033 0 0 1 1.58938,-1.58966 z"
       id="path56" />
    <path
       style="fill:none;stroke:#000000;stroke-width:0.120673"
       d="m 461.72201,168.56645 a 1.5895729,1.5897023 0 0 1 1.58995,1.58966 1.5895729,1.5897023 0 0 1 -1.58995,1.58967 1.5895729,1.5897023 0 0 1 -1.58938,-1.58967 1.5895729,1.5897023 0 0 1 1.58938,-1.58966 z"
       id="path54" />
    <path
       style="fill:none;stroke:#000000;stroke-width:0.456087"
       d="m 1873.7148,379.89258 v 10.95703 h -150.9394 v 27.71094 h -10.3574 v 112.76172 h 10.3574 v 152.52929 h -10.3574 v 112.83789 h 10.3125 v 75.5918 h 14.9179 v 30.03711 h -14.9179 v 46.52148 h -10.3125 v 112.83396 h 10.3047 v 302.2364 36.8574 0.5449 29.7871 h -10.3047 v 112.7891 h 10.3593 v 64.6933 h 0.9004 v -1.7343 h 150.9805 v 12.2734 h 16.5957 36.8379 135.5664 v -12.2734 h 139.6426 v -85.5762 -613.60158 h -129.0235 v -98.82226 h 129.0235 V 763.49219 H 1983.5312 V 751.2207 h 219.7696 V 392.16406 h -139.6426 v -12.27148 z"
       transform="scale(0.26458333)"
       id="path1279" />
    <path
       style="fill:none;stroke:#000000;stroke-width:0.120673"
       d="m 367.19794,208.62152 a 1.5897055,1.5897061 0 0 1 1.58966,1.58966 1.5897055,1.5897061 0 0 1 -1.58966,1.58967 1.5897055,1.5897061 0 0 1 -1.58967,-1.58967 1.5897055,1.5897061 0 0 1 1.58967,-1.58966 z"
       id="path32" />
    <path
       style="fill:none;stroke:#000000;stroke-width:0.120673"
       d="m 367.19794,198.62134 a 1.5897056,1.5897024 0 0 1 1.58966,1.58966 1.5897056,1.5897024 0 0 1 -1.58966,1.58967 1.5897056,1.5897024 0 0 1 -1.58967,-1.58967 1.5897056,1.5897024 0 0 1 1.58967,-1.58966 z"
       id="path30" />
    <path
       style="fill:none;stroke:#000000;stroke-width:0.120673"
       d="m 404.20008,189.62098 a 1.5895592,1.5897033 0 0 1 1.58952,1.58966 1.5895592,1.5897033 0 0 1 -1.58952,1.58967 1.5895592,1.5897033 0 0 1 -1.5898,-1.58967 1.5895592,1.5897033 0 0 1 1.5898,-1.58966 z"
       id="path28" />
    <path
       style="fill:none;stroke:#000000;stroke-width:0.120673"
       d="m 404.20008,179.62107 a 1.5895594,1.5897023 0 0 1 1.58952,1.58966 1.5895594,1.5897023 0 0 1 -1.58952,1.58967 1.5895594,1.5897023 0 0 1 -1.5898,-1.58967 1.5895594,1.5897023 0 0 1 1.5898,-1.58966 z"
       id="path26" />
    <path
       style="fill:none;stroke:#000000;stroke-width:0.120673"
       d="m 325.54321,111.14154 v 2.89904 h -39.94048 v 94.99989 H 343.753 v 3.24683 h -58.15027 v 12.0003 h 34.12862 v 26.14724 h -34.12862 v 185.33803 h 39.8945 v 3.24737 h 50.3007 v -3.24634 h 36.94927 v -16.88732 h 2.73386 V 389.04809 H 412.7472 V 291.4959 h 2.73386 v -29.81989 h -2.74058 v -40.33862 h 2.74058 v -29.83177 h -2.74058 v -40.32777 h 2.74058 v -29.82454 h -2.73849 v -6.96495 h -36.9493 v -3.24682 z"
       id="path1232" />
    <rect
       style="fill:none;stroke:#000000;stroke-width:0.0999997;stroke-miterlimit:4;stroke-dasharray:none"
       id="rect1893"
       width="197.89999"
       height="64.899994"
       x="99.257362"
       y="-191.75459"
       transform="rotate(90)" />
    <rect
       style="fill:none;stroke:#000000;stroke-width:0.0999997;stroke-miterlimit:4;stroke-dasharray:none"
       id="rect2018"
       width="64.900002"
       height="59.900002"
       x="128.71445"
       y="323.88205" />
    <path
       style="fill:none;stroke:#000000;stroke-width:0.1"
       d="m 60.725878,146.23644 h 10.40195 v 3.40185 h -10.40195 z"
       id="path31" />
    <path
       style="fill:none;stroke:#000000;stroke-width:0.1"
       d="m 40.352958,146.23644 h 10.40195 v 3.40185 h -10.40195 z"
       id="path29" />
    <path
       style="fill:none;stroke:#000000;stroke-width:0.1"
       d="m 80.508128,146.23591 h 10.40195 v 3.40185 h -10.40195 z"
       id="path27" />
    <path
       style="fill:none;stroke:#000000;stroke-width:0.1"
       d="m 35.813128,97.573781 v 16.400039 h 3.49798 v 10.50015 h -3.49798 v 9.50018 h 3.50005 v 10.49962 h -3.50005 v 12.99972 h 59.89971 v -12.99972 h -3.50005 v -10.49962 h 3.50005 v -9.50018 h -3.50005 v -10.50015 h 3.50005 V 97.573781 Z"
       id="path4971" />
    <path
       style="fill:none;stroke:#000000;stroke-width:0.1"
       d="m 76.862968,119.02359 a 1.45,1.4499999 0 0 1 -1.45,1.45 1.45,1.4499999 0 0 1 -1.45,-1.45 1.45,1.4499999 0 0 1 1.45,-1.45 1.45,1.4499999 0 0 1 1.45,1.45 z"
       id="path4969"
       inkscape:connector-curvature="0" />
    <path
       style="fill:none;stroke:#000000;stroke-width:0.1"
       d="m 56.862958,119.02359 a 1.45,1.4499999 0 0 1 -1.45,1.45 1.45,1.4499999 0 0 1 -1.45,-1.45 1.45,1.4499999 0 0 1 1.45,-1.45 1.45,1.4499999 0 0 1 1.45,1.45 z"
       id="ellipse4237"
       inkscape:connector-curvature="0" />
    <text
       xml:space="preserve"
       style="font-style:normal;font-weight:normal;font-size:10.5833px;line-height:1.25;font-family:sans-serif;fill:#000000;fill-opacity:1;stroke:none;stroke-width:0.264583"
       x="73.535454"
       y="65.204094"
       id="text1065"><tspan
         sodipodi:role="line"
         id="tspan1063"
         style="stroke-width:0.264583"
         x="73.535454"
         y="65.204094">Warna hitam 3 mm</tspan></text>
    <path
       id="rect1301"
       style="fill:none;stroke:#000000;stroke-width:0.0529167"
       d="m 292.72496,481.28196 v 64.94696 h 39.55261 v -3.24684 h 0.447 49.94734 0.44752 v 3.24684 h 39.55262 v -14.44668 h 0.0527 v -0.80356 h 2.94712 v -34.44701 h -2.94712 v -0.24958 h -0.0527 v -15.00013 h -39.55262 v 3.24737 h -0.44752 v -5.3e-4 h -49.94734 v 5.3e-4 h -0.447 v -3.24737 z" />
    <path
       id="path3190"
       style="fill:none;stroke:#000000;stroke-width:0.0529167"
       d="m 446.4475,478.77954 v 64.94696 h 39.55261 v -3.24684 h 0.447 49.94735 0.44752 v 3.24684 h 39.55262 v -14.44668 h 0.0527 v -0.80356 h 2.94712 v -34.44701 h -2.94712 v -0.24958 h -0.0527 v -15.00013 h -39.55262 v 3.24737 h -0.44752 v -5.3e-4 h -49.94735 v 5.3e-4 h -0.447 v -3.24737 z" />
    <text
       xml:space="preserve"
       style="font-style:normal;font-weight:normal;font-size:10.5833px;line-height:1.25;font-family:sans-serif;fill:#000000;fill-opacity:1;stroke:none;stroke-width:0.264583"
       x="405.60822"
       y="68.100273"
       id="text4316"><tspan
         sodipodi:role="line"
         id="tspan4314"
         style="stroke-width:0.264583"
         x="405.60822"
         y="68.100273">Putih 3 mm</tspan></text>
  </g>
</svg>
