<?xml version="1.0" encoding="UTF-8" standalone="no"?>
<!-- Created with Inkscape (http://www.inkscape.org/) -->

<svg
   width="210mm"
   height="297mm"
   viewBox="0 0 210 297"
   version="1.1"
   id="svg135"
   inkscape:version="1.1.1 (3bf5ae0d25, 2021-09-20)"
   sodipodi:docname="Microscope Holder Inner.svg"
   xmlns:inkscape="http://www.inkscape.org/namespaces/inkscape"
   xmlns:sodipodi="http://sodipodi.sourceforge.net/DTD/sodipodi-0.dtd"
   xmlns="http://www.w3.org/2000/svg"
   xmlns:svg="http://www.w3.org/2000/svg">
  <sodipodi:namedview
     id="namedview137"
     pagecolor="#ffffff"
     bordercolor="#666666"
     borderopacity="1.0"
     inkscape:pageshadow="2"
     inkscape:pageopacity="0.0"
     inkscape:pagecheckerboard="0"
     inkscape:document-units="mm"
     showgrid="false"
     inkscape:zoom="0.5"
     inkscape:cx="475"
     inkscape:cy="397"
     inkscape:window-width="1366"
     inkscape:window-height="715"
     inkscape:window-x="-8"
     inkscape:window-y="-8"
     inkscape:window-maximized="1"
     inkscape:current-layer="layer1" />
  <defs
     id="defs132" />
  <g
     inkscape:label="Layer 1"
     inkscape:groupmode="layer"
     id="layer1">
    <path
       id="rect2444"
       style="fill:none;stroke:#000000;stroke-width:0.248756"
       d="M 73.548947,89.336149 V 74.335516 h 2.726449 V 54.609072 H 73.548947 V 39.584665 h 20.000846 v 30.75161 h 0.0083 a 4.8780488,4.8780488 0 0 0 -0.01085,0.124542 4.8780488,4.8780488 0 0 0 4.87774,4.878255 4.8780488,4.8780488 0 0 0 4.878247,-4.878255 4.8780488,4.8780488 0 0 0 -0.0129,-0.336931 V 39.584665 h 20.01015 v 15.024407 h -2.72697 v 19.726444 h 2.72697 V 89.336149 H 108.27499 V 86.609184 H 88.548549 v 2.726965 z" />
    <path
       id="rect32"
       style="fill:none;stroke:#000000;stroke-width:0.248756"
       d="m -48.966521,148.37441 v 2.88354 h -6.783564 v 6.97632 h -2.859773 v 30.03124 h 2.859773 v 9.85986 h 7.135481 v -23.70501 a 14.937759,14.937759 0 0 1 -0.05788,-1.17099 14.937759,14.937759 0 0 1 0.05788,-1.17098 v -1.70946 h 0.224277 a 14.937759,14.937759 0 0 1 14.655953,-12.05714 14.937759,14.937759 0 0 1 14.656989,12.05714 h 0.22324 v 1.5937 a 14.937759,14.937759 0 0 1 0.0574,1.28674 14.937759,14.937759 0 0 1 -0.0574,1.16893 v 23.70707 h 7.18457 v -9.81077 h 2.8106805 v -30.08033 h -2.8602905 v -6.97632 h -6.78356 v -2.88354 z" />
    <path
       id="rect138"
       style="fill:none;stroke:#000000;stroke-width:0.248756"
       d="m -52.701707,88.703622 v 2.88355 h -6.78304 v 6.97632 h -2.86029 v 30.031738 h 2.86029 v 9.85989 h 4.63227 v -23.69107 a 17.437723,17.437723 0 0 1 -0.0548,-1.18443 17.437723,17.437723 0 0 1 0.0548,-1.18442 v -3.70261 h 0.19844 a 17.379444,14.879442 0 0 1 17.22479,-13.366108 17.379444,14.879442 0 0 1 17.283697,13.366108 h 0.063 v 0.61753 a 17.379444,14.879442 0 0 1 0.0326,0.89607 17.379444,14.879442 0 0 1 -0.0326,0.31833 v 1.75441 a 17.437723,17.437723 0 0 1 0.0501,1.30069 17.437723,17.437723 0 0 1 -0.0501,1.09503 v 23.78047 h 4.62814 v -9.85989 h 2.8603 V 98.563492 h -2.8603 v -6.97632 h -6.78356 v -2.88355 z" />
    <path
       id="rect2632-0"
       style="fill:none;stroke:#000000;stroke-width:0.941503"
       d="M 334.67188 355.14844 L 334.67188 365.58594 L 277.98242 365.58594 L 277.98242 468.44922 L 288.36328 468.44922 L 288.36328 637.65234 L 277.98242 637.65234 L 277.98242 788.85156 L 466.01758 788.85156 L 466.01758 637.74023 L 455.55273 637.74023 L 455.55273 468.53516 L 466.01758 468.53516 L 466.01758 365.58398 L 409.18945 365.58398 L 409.18945 355.14844 L 334.67188 355.14844 z M 316.0625 400.04297 A 5.5658294 5.5658294 0 0 1 321.62891 405.60938 A 5.5658294 5.5658294 0 0 1 316.0625 411.17578 A 5.5658294 5.5658294 0 0 1 310.49805 405.60938 A 5.5658294 5.5658294 0 0 1 316.0625 400.04297 z M 428.69336 400.04297 A 5.5658294 5.5658294 0 0 1 434.25781 405.60938 A 5.5658294 5.5658294 0 0 1 428.69336 411.17578 A 5.5658294 5.5658294 0 0 1 423.12695 405.60938 A 5.5658294 5.5658294 0 0 1 428.69336 400.04297 z M 316.0625 755.41211 A 5.5658294 5.5658294 0 0 1 321.62891 760.97852 A 5.5658294 5.5658294 0 0 1 316.0625 766.54297 A 5.5658294 5.5658294 0 0 1 310.49805 760.97852 A 5.5658294 5.5658294 0 0 1 316.0625 755.41211 z M 428.69336 755.41211 A 5.5658294 5.5658294 0 0 1 434.25781 760.97852 A 5.5658294 5.5658294 0 0 1 428.69336 766.54297 A 5.5658294 5.5658294 0 0 1 423.12695 760.97852 A 5.5658294 5.5658294 0 0 1 428.69336 755.41211 z "
       transform="scale(0.26458333)" />
    <path
       id="path1083-2"
       style="fill:none;stroke:#000000;stroke-width:0.216252"
       d="m 34.72109,93.965889 v 2.787704 H 19.682647 V 208.74964 H 66.681784 V 168.5691 h 2.784611 v -44.61667 h -2.82184 V 96.758762 H 54.455877 v -2.792873 z" />
    <rect
       style="fill:none;stroke:#000000;stroke-width:0.240791"
       id="rect1936"
       width="2.7592094"
       height="30.259209"
       x="138.75247"
       y="-59.621746"
       transform="rotate(90)" />
    <rect
       style="fill:none;stroke:#000000;stroke-width:0.240791"
       id="rect2018"
       width="2.7592092"
       height="30.259209"
       x="184.5144"
       y="-59.942604"
       transform="rotate(90)" />
    <path
       id="rect2022"
       style="fill:none;stroke:#000000;stroke-width:0.238883"
       d="m 144.03208,137.7849 v 2.76112 h 29.76111 v -2.76112 z m 24.72247,-44.786553 v 2.787704 h 15.03844 V 207.7821 h -46.99914 v -40.18054 h -2.78461 v -44.61667 h 2.82184 V 95.79122 h 12.18868 v -2.792873 z m -24.72247,90.547563 v 2.76111 h 29.76111 v -2.76111 z" />
    <rect
       style="fill:none;stroke:#000000;stroke-width:0.242682"
       id="rect2400"
       width="2.7573187"
       height="30.757318"
       x="138.75334"
       y="-113.68166"
       transform="rotate(90)" />
    <rect
       style="fill:none;stroke:#000000;stroke-width:0.242207"
       id="rect2402"
       width="2.7577927"
       height="30.631969"
       x="184.51503"
       y="-113.90807"
       transform="rotate(90)" />
    <rect
       style="fill:none;stroke:#000000;stroke-width:0.242682"
       id="rect2582"
       width="2.7573187"
       height="30.757318"
       x="138.75334"
       y="-113.68166"
       transform="rotate(90)" />
  </g>
</svg>
