<?xml version="1.0" encoding="UTF-8" standalone="no"?>
<!-- Created with Inkscape (http://www.inkscape.org/) -->

<svg
   width="210mm"
   height="297mm"
   viewBox="0 0 210 297"
   version="1.1"
   id="svg135"
   inkscape:version="1.1.1 (3bf5ae0d25, 2021-09-20)"
   sodipodi:docname="Microscope Holder Inner Rev1.svg"
   xmlns:inkscape="http://www.inkscape.org/namespaces/inkscape"
   xmlns:sodipodi="http://sodipodi.sourceforge.net/DTD/sodipodi-0.dtd"
   xmlns="http://www.w3.org/2000/svg"
   xmlns:svg="http://www.w3.org/2000/svg">
  <sodipodi:namedview
     id="namedview137"
     pagecolor="#ffffff"
     bordercolor="#666666"
     borderopacity="1.0"
     inkscape:pageshadow="2"
     inkscape:pageopacity="0.0"
     inkscape:pagecheckerboard="0"
     inkscape:document-units="mm"
     showgrid="false"
     inkscape:zoom="0.70710678"
     inkscape:cx="299.10617"
     inkscape:cy="364.15999"
     inkscape:window-width="1366"
     inkscape:window-height="715"
     inkscape:window-x="-8"
     inkscape:window-y="-8"
     inkscape:window-maximized="1"
     inkscape:current-layer="layer1" />
  <defs
     id="defs132" />
  <g
     inkscape:label="Layer 1"
     inkscape:groupmode="layer"
     id="layer1">
    <path
       id="rect2444"
       style="fill:none;stroke:#000000;stroke-width:0.248756"
       d="M 73.538667,72.38576 V 57.385127 h 2.726449 V 37.658683 H 73.538667 V 22.634276 h 20.000846 v 30.75161 h 0.0083 a 4.8780488,4.8780488 0 0 0 -0.01085,0.124542 4.8780488,4.8780488 0 0 0 4.87774,4.878255 4.8780488,4.8780488 0 0 0 4.878247,-4.878255 4.8780488,4.8780488 0 0 0 -0.0129,-0.336931 V 22.634276 h 20.01015 v 15.024407 h -2.72697 v 19.726444 h 2.72697 V 72.38576 H 108.26471 V 69.658795 H 88.538269 v 2.726965 z" />
    <path
       id="rect32"
       style="fill:none;stroke:#000000;stroke-width:0.248756"
       d="m -48.966521,148.37441 v 2.88354 h -6.783564 v 6.97632 h -2.859773 v 30.03124 h 2.859773 v 9.85986 h 7.135481 v -23.70501 a 14.937759,14.937759 0 0 1 -0.05788,-1.17099 14.937759,14.937759 0 0 1 0.05788,-1.17098 v -1.70946 h 0.224277 a 14.937759,14.937759 0 0 1 14.655953,-12.05714 14.937759,14.937759 0 0 1 14.656989,12.05714 h 0.22324 v 1.5937 a 14.937759,14.937759 0 0 1 0.0574,1.28674 14.937759,14.937759 0 0 1 -0.0574,1.16893 v 23.70707 h 7.18457 v -9.81077 h 2.8106805 v -30.08033 h -2.8602905 v -6.97632 h -6.78356 v -2.88354 z" />
    <path
       id="rect138"
       style="fill:none;stroke:#000000;stroke-width:0.248756"
       d="m -80.218374,42.136956 v 2.88355 h -6.78304 v 6.97632 h -2.86029 v 30.031738 h 2.86029 v 9.85989 h 4.63227 v -23.69107 a 17.437723,17.437723 0 0 1 -0.0548,-1.18443 17.437723,17.437723 0 0 1 0.0548,-1.18442 v -3.70261 h 0.19844 a 17.379444,14.879442 0 0 1 17.22479,-13.366108 17.379444,14.879442 0 0 1 17.283697,13.366108 h 0.063 v 0.61753 a 17.379444,14.879442 0 0 1 0.0326,0.89607 17.379444,14.879442 0 0 1 -0.0326,0.31833 v 1.75441 a 17.437723,17.437723 0 0 1 0.0501,1.30069 17.437723,17.437723 0 0 1 -0.0501,1.09503 v 23.78047 h 4.62814 v -9.85989 h 2.8603 V 51.996826 h -2.8603 v -6.97632 h -6.78356 v -2.88355 z" />
    <path
       id="rect2018"
       style="fill:none;stroke:#000000;stroke-width:0.240706"
       d="m 59.922786,184.49507 v 2.75862 H 29.67844 v -2.75862 z m -0.320701,-45.75219 v 2.75862 H 29.35774 v -2.75862 z M 34.713661,93.965846 v 2.787111 H 19.682604 V 208.72514 h 46.976051 v -40.17198 h 2.783244 V 123.946 H 66.621444 V 96.758125 h -12.18269 v -2.792279 z" />
    <path
       id="rect2022"
       style="fill:none;stroke:#000000;stroke-width:0.238806"
       d="m 144.0275,137.77606 v 2.76058 h 29.74763 v -2.76058 z m 24.71127,-44.777752 v 2.787156 H 183.7704 V 207.75951 h -46.97785 v -40.17265 h -2.78335 v -44.6079 h 2.82056 V 95.790632 h 12.18317 V 92.998308 Z M 144.0275,183.52808 v 2.76057 h 29.74763 v -2.76057 z" />
    <path
       style="fill:none;stroke:#000000;stroke-width:0.242704"
       d="m 113.4302,199.87563 a 1.472813,1.4727115 0 0 1 1.47245,1.47286 1.472813,1.4727115 0 0 1 -1.47245,1.47235 1.472813,1.4727115 0 0 1 -1.47296,-1.47235 1.472813,1.4727115 0 0 1 1.47296,-1.47286 z"
       id="path60" />
    <path
       style="fill:none;stroke:#000000;stroke-width:0.242704"
       d="m 83.626161,199.87563 a 1.472813,1.4727115 0 0 1 1.472967,1.47286 1.472813,1.4727115 0 0 1 -1.472967,1.47235 1.472813,1.4727115 0 0 1 -1.472448,-1.47235 1.472813,1.4727115 0 0 1 1.472448,-1.47286 z"
       id="path58" />
    <path
       style="fill:none;stroke:#000000;stroke-width:0.242704"
       d="m 113.4302,105.84541 a 1.472813,1.4727115 0 0 1 1.47245,1.47286 1.472813,1.4727115 0 0 1 -1.47245,1.47287 1.472813,1.4727115 0 0 1 -1.47296,-1.47287 1.472813,1.4727115 0 0 1 1.47296,-1.47286 z"
       id="path56" />
    <path
       style="fill:none;stroke:#000000;stroke-width:0.242704"
       d="m 83.626161,105.84541 a 1.472813,1.4727115 0 0 1 1.472967,1.47286 1.472813,1.4727115 0 0 1 -1.472967,1.47287 1.472813,1.4727115 0 0 1 -1.472448,-1.47287 1.472813,1.4727115 0 0 1 1.472448,-1.47286 z"
       id="path54" />
    <path
       style="fill:none;stroke:#000000;stroke-width:0.242704"
       d="m 88.550518,93.966369 v 2.761748 H 73.549526 V 123.9456 h 2.746951 v 44.77095 h -2.746951 v 40.00711 H 123.30682 V 168.7398 h -2.76917 v -44.77146 h 2.76917 V 96.727599 h -15.03768 v -2.76123 z"
       id="path52" />
    <path
       style="fill:none;stroke:#000000;stroke-width:0.242704"
       d="m 113.68678,138.75596 v 2.75748 H 82.925548 v -2.75748 z"
       id="path50" />
    <path
       style="fill:none;stroke:#000000;stroke-width:0.242704"
       d="m 113.14042,184.51886 v 2.76089 H 83.275881 v -2.76089 z"
       id="path48" />
    <path
       style="fill:none;stroke:#000000;stroke-width:0.242704"
       d="m 113.68678,138.75596 v 2.75748 H 82.925548 v -2.75748 z"
       id="rect2582" />
  </g>
</svg>
